<?xml version="1.0" encoding="UTF-8" standalone="no"?>
<!-- Created with Inkscape (http://www.inkscape.org/) -->

<svg
   width="1355.1663"
   height="1049.6409"
   viewBox="0 0 358.55439 277.71747"
   version="1.1"
   id="svg5"
   inkscape:version="1.1.2 (b8e25be833, 2022-02-05)"
   sodipodi:docname="overeye.svg"
   xmlns:inkscape="http://www.inkscape.org/namespaces/inkscape"
   xmlns:sodipodi="http://sodipodi.sourceforge.net/DTD/sodipodi-0.dtd"
   xmlns="http://www.w3.org/2000/svg"
   xmlns:svg="http://www.w3.org/2000/svg">
  <sodipodi:namedview
     id="namedview7"
     pagecolor="#ffffff"
     bordercolor="#999999"
     borderopacity="1"
     inkscape:pageshadow="0"
     inkscape:pageopacity="0"
     inkscape:pagecheckerboard="0"
     inkscape:document-units="mm"
     showgrid="false"
     inkscape:snap-global="false"
     inkscape:object-paths="false"
     units="px"
     inkscape:snap-page="true"
     inkscape:snap-center="false"
     inkscape:snap-object-midpoints="false"
     inkscape:snap-intersection-paths="true"
     inkscape:zoom="0.90509668"
     inkscape:cx="477.8495"
     inkscape:cy="417.63494"
     inkscape:window-width="1920"
     inkscape:window-height="1017"
     inkscape:window-x="-8"
     inkscape:window-y="-8"
     inkscape:window-maximized="1"
     inkscape:current-layer="layer1"
     showguides="true" />
  <defs
     id="defs2">
    <inkscape:path-effect
       effect="bend_path"
       id="path-effect35329"
       is_visible="true"
       lpeversion="1"
       bendpath="m 170.08702,244.77415 c 72.97924,16.7166 130.18617,4.02261 181.44424,-8.76978"
       prop_scale="1"
       scale_y_rel="false"
       vertical="false"
       hide_knot="false"
       bendpath-nodetypes="cc" />
    <inkscape:path-effect
       effect="bend_path"
       id="path-effect27013"
       is_visible="true"
       lpeversion="1"
       bendpath="m 170.08702,244.77415 c 72.97924,16.7166 130.18617,4.02261 181.44424,-8.76978"
       prop_scale="1"
       scale_y_rel="false"
       vertical="false"
       hide_knot="false"
       bendpath-nodetypes="cc" />
    <inkscape:path-effect
       effect="bend_path"
       id="path-effect18226"
       is_visible="true"
       lpeversion="1"
       bendpath="m 174.32351,263.09291 c 57.86363,12.20724 114.66558,9.5511 170.97504,0"
       prop_scale="1"
       scale_y_rel="false"
       vertical="false"
       hide_knot="false"
       bendpath-nodetypes="cc" />
    <rect
       x="412.5"
       y="823.4375"
       width="803.125"
       height="235.9375"
       id="rect2994" />
    <rect
       x="496"
       y="94"
       width="838"
       height="308"
       id="rect2421" />
  </defs>
  <g
     inkscape:label="Layer 1"
     inkscape:groupmode="layer"
     id="layer1"
     transform="translate(-75.235807,-15.455063)">
    <text
       xml:space="preserve"
       transform="scale(0.26458333)"
       id="text2419"
       style="font-style:normal;font-weight:normal;font-size:40px;line-height:1.25;font-family:sans-serif;white-space:pre;shape-inside:url(#rect2421);fill:#000000;fill-opacity:1;stroke:none" />
    <ellipse
       style="fill:#2c242b;fill-opacity:1;stroke:none;stroke-width:0.370781"
       id="path36564"
       cx="257.57138"
       cy="108.35662"
       rx="37.956921"
       ry="36.648064" />
    <path
       style="fill:#d5cbba;fill-opacity:1;stroke:none;stroke-width:0.295945px;stroke-linecap:butt;stroke-linejoin:miter;stroke-opacity:1"
       d="M 420.18172,112.911 363.26166,60.17621 259.46618,28.367927 166.13395,57.246515 102.93592,118.7704 v 8.78915 l 77.00952,41.43448 108.81784,8.78911 70.73161,-23.85621 42.27148,-13.39293 z"
       id="path178833" />
    <ellipse
       style="fill:#d5cbba;fill-opacity:1;stroke:none;stroke-width:0.286209"
       id="path44882"
       cx="283.53876"
       cy="89.049011"
       rx="12.325782"
       ry="12.527844" />
    <path
       id="path108177"
       style="fill:#ca60ae;fill-opacity:1;stroke:none;stroke-width:0.295945px;stroke-linecap:butt;stroke-linejoin:miter;stroke-opacity:1"
       d="m 433.15615,131.74484 c 0,0 8.84141,-1.9736 -39.52866,7.43869 -108.36164,24.89536 -187.06546,34.6334 -270.67017,-6.01501 27.59718,14.32795 49.18513,30.29593 119.34936,35.61667 44.15442,3.34835 109.48128,-12.2892 154.97952,-23.43594 29.49127,-7.22513 35.86995,-13.60441 35.86995,-13.60441 z"
       sodipodi:nodetypes="cccssc" />
    <path
       id="path184608"
       style="fill:#de4f7e;fill-opacity:1;stroke:none;stroke-width:0.295945px;stroke-linecap:butt;stroke-linejoin:miter;stroke-opacity:1"
       d="m 433.15615,131.74484 c 0,0 8.84141,-1.9736 -39.52866,7.43869 -108.36164,24.89536 -187.06546,34.6334 -270.67017,-6.01501 27.59718,14.32795 49.18513,30.29593 119.34936,35.61667 44.15442,3.34835 109.48128,-12.2892 154.97952,-23.43594 29.49127,-7.22513 35.86995,-13.60441 35.86995,-13.60441 z"
       sodipodi:nodetypes="cccssc" />
    <path
       style="fill:none;stroke:none;stroke-width:0.370201px;stroke-linecap:butt;stroke-linejoin:miter;stroke-opacity:1"
       d="m 183.54464,67.83065 c 61.63855,-24.063067 83.48046,-17.584551 83.48046,-17.584551 0,0 42.34662,-5.78826 103.60125,37.665876 61.25464,43.454155 61.25464,43.454155 61.25464,43.454155 0,0 5.75894,-2.09418 -4.18836,-10.47088 -9.94734,-8.37673 -102.61459,-79.055106 -128.79179,-85.33766 -26.17717,-6.282521 -94.76141,11.517981 -105.75583,16.753424 -10.99446,5.235417 -9.60037,15.519636 -9.60037,15.519636 z"
       id="path15328" />
    <path
       style="fill:#00ffff;fill-opacity:1;stroke:none;stroke-width:0.358742px;stroke-linecap:butt;stroke-linejoin:miter;stroke-opacity:1"
       d="m 227.75394,47.461201 c -25.03062,6.125293 -32.8876,-10.091435 -32.8876,-10.091435 0,0 -4.24856,16.86444 11.78598,17.443584 14.97378,0.541007 21.10198,-7.352217 21.10198,-7.352217 z"
       id="path34094"
       sodipodi:nodetypes="ccsc" />
    <path
       style="fill:#853556;fill-opacity:1;stroke:none;stroke-width:0.295162px;stroke-linecap:butt;stroke-linejoin:miter;stroke-opacity:1"
       d="m 245.70677,45.329795 c 0,0 0.21901,1.293326 2.84604,-4.377451 2.62712,-5.670767 3.72176,-23.578431 3.72176,-23.578431 0,0 5.91096,22.384564 7.22452,24.175353 1.31355,1.790793 0,3.979494 0,3.979494 z"
       id="path34370" />
    <path
       style="fill:#853556;fill-opacity:1;stroke:none;stroke-width:0.230579px;stroke-linecap:butt;stroke-linejoin:miter;stroke-opacity:1"
       d="m 222.98882,47.786701 c 0,0 6.27895,-0.185453 1.89863,-2.806168 -5.06835,-3.03273 -1.26774,-14.458728 -1.26774,-14.458728 0,0 5.5578,13.518089 12.23241,14.200328 2.36565,0.241812 0.83601,2.404742 0.83601,2.404742 z"
       id="path34370-2"
       sodipodi:nodetypes="cscscc" />
    <path
       style="fill:#853556;fill-opacity:1;stroke:none;stroke-width:0.315897px;stroke-linecap:butt;stroke-linejoin:miter;stroke-opacity:1"
       d="m 311.41723,47.742761 c 20.91504,6.547149 27.91741,-8.093808 27.91741,-8.093808 0,0 3.16856,15.676957 -10.3378,15.627681 -12.61334,-0.04589 -17.57959,-7.533898 -17.57959,-7.533898 z"
       id="path34488"
       sodipodi:nodetypes="ccsc" />
    <path
       style="fill:#853556;fill-opacity:1;stroke:none;stroke-width:0.370201px;stroke-linecap:butt;stroke-linejoin:miter;stroke-opacity:1"
       d="m 207.60774,58.020341 c 62.56407,-16.844195 65.71447,-8.022717 114.02205,1.110597 2.60972,0.493386 4.07222,-6.848698 4.07222,-6.848698 0,0 -49.9365,-20.45533 -76.44662,-15.918698 -24.87455,4.256734 -37.76051,10.365656 -37.76051,10.365656 z"
       id="path34523"
       sodipodi:nodetypes="cscscc" />
    <path
       style="fill:#853556;fill-opacity:1;stroke:none;stroke-width:0.219805px;stroke-linecap:butt;stroke-linejoin:miter;stroke-opacity:1"
       d="m 294.58399,45.47846 c 7.6198,-0.79449 15.27375,-9.154246 15.27375,-9.154246 0,0 -0.87437,10.998365 -5.69542,14.590774 -4.76663,3.551848 -9.57833,-5.436599 -9.57833,-5.436599 z"
       id="path35180"
       sodipodi:nodetypes="ccsc" />
    <path
       style="fill:#853556;fill-opacity:1;stroke:none;stroke-width:0.219805px;stroke-linecap:butt;stroke-linejoin:miter;stroke-opacity:1"
       d="m 269.41028,40.295592 c 7.61984,-0.794442 15.27374,-9.154198 15.27374,-9.154198 0,0 -0.87431,10.99834 -5.69537,14.590738 -4.76666,3.551848 -9.57837,-5.436562 -9.57837,-5.436562 z"
       id="path35705"
       sodipodi:nodetypes="ccsc" />
    <path
       style="fill:#9e9388;fill-opacity:1;stroke:none;stroke-width:0.616428px;stroke-linecap:butt;stroke-linejoin:miter;stroke-opacity:1"
       d="m 119.97383,133.23382 c 12.12044,-33.20666 125.86593,-79.455816 138.86622,-69.522074 52.45653,40.082934 -0.60115,103.965144 5.68407,104.988324 75.66183,-4.73182 170.08207,-21.50696 145.51742,-75.040636 L 293.57938,33.044613 232.62402,31.341955 94.027227,122.26416 Z"
       id="path104833"
       sodipodi:nodetypes="cscccccc" />
    <path
       id="path150596"
       style="fill:#853556;fill-opacity:1;stroke:none;stroke-width:0.295945px;stroke-linecap:butt;stroke-linejoin:miter;stroke-opacity:1"
       d="m 98.163647,129.36806 c 0,0 53.556733,43.15164 90.789183,54.97348 84.01939,26.67744 203.45081,-38.86091 203.38204,-38.84331 -3.21755,0.82147 -17.09241,3.65247 -24.89796,5.54092 -41.15701,9.50134 -94.07863,17.06672 -129.04157,14.41537 -70.16421,-5.32077 -87.90478,-18.03299 -115.50196,-32.36095 0,0 -16.84686,-10.72225 -21.74412,-9.16092 -5.066354,1.61529 -2.985613,5.43541 -2.985613,5.43541 z"
       sodipodi:nodetypes="csccscsc" />
    <path
       id="path128589"
       style="fill:#78304e;fill-opacity:1;stroke:none;stroke-width:0.295945px;stroke-linecap:butt;stroke-linejoin:miter;stroke-opacity:1"
       d="m 392.3352,145.49883 c -3.21751,0.82143 -17.09241,3.65221 -24.89798,5.54064 -30.05173,6.93763 -66.36941,12.83765 -97.39473,14.4873 l 1.84447,2.96055 c 0,0 -0.34406,7.09232 -1.50673,11.74399 -0.75236,3.0102 -3.40982,6.66911 -4.52632,8.06125 63.59742,-10.26391 126.52927,-42.80601 126.48129,-42.79373 z"
       sodipodi:nodetypes="ccccscc" />
    <ellipse
       style="fill:#28211a;fill-opacity:1;stroke:none;stroke-width:0.370781"
       id="ellipse310551"
       cx="260.285"
       cy="111.613"
       rx="37.956921"
       ry="36.648064" />
    <path
       id="path120017"
       style="fill:#de4f7e;fill-opacity:1;stroke:none;stroke-width:0.295945px;stroke-linecap:butt;stroke-linejoin:miter;stroke-opacity:1"
       d="m 251.57255,15.531771 c -61.15487,1.80704 -94.61001,39.983903 -149.89219,97.263369 -1.3317,2.79885 -0.76181,4.55064 0.0356,6.33827 0.55446,1.07321 3.59767,0.72747 3.88267,0.45757 10.64039,-9.9736 91.97599,-84.247779 148.31318,-81.658611 57.83208,2.657874 106.4737,23.550214 145.75235,60.0499 0.45676,0.42514 0.93176,0.863092 1.37854,1.280873 20.10553,18.779608 30.31058,30.397398 32.11369,32.481698 -0.12918,-0.36594 0.79833,-3.72253 -0.5556,-6.24715 C 417.80916,97.916949 352.83205,12.539647 251.57268,15.531771 Z"
       sodipodi:nodetypes="scccscccss" />
    <path
       style="fill:#853556;fill-opacity:1;stroke:none;stroke-width:0.295945px;stroke-linecap:butt;stroke-linejoin:miter;stroke-opacity:1"
       d="m 433.17374,131.74105 c -12.61289,-19.97154 -13.66952,-24.01412 -33.82901,-39.842483 -1.70459,20.241413 13.23428,25.115673 -7.84529,49.868833 19.76489,-3.45745 23.53711,-3.16551 41.6743,-10.02635 z"
       id="path168819"
       sodipodi:nodetypes="cccc" />
    <path
       style="fill:#78304e;fill-opacity:1;stroke:none;stroke-width:0.365782"
       id="path55675"
       d="m 236.16373,146.97927 c 0.25839,-0.12367 0.52162,-0.2379 0.77515,-0.37138 2.12752,-1.1206 4.21321,-2.33168 6.31579,-3.49685 3.33478,-1.84804 3.98537,-2.19337 7.42107,-4.06351 1.32206,-0.74986 2.66279,-1.46776 3.96622,-2.24957 2.39222,-1.43494 4.79407,-2.85795 7.11892,-4.39966 1.27834,-0.84767 2.48333,-1.80311 3.68066,-2.7618 2.11356,-1.69234 4.63826,-3.97375 6.57038,-5.88773 0.93213,-0.92336 1.8131,-1.8969 2.71963,-2.84536 2.49946,-2.97637 2.14178,-2.35857 4.22792,-5.59483 0.59879,-0.9289 1.18863,-1.86475 1.73264,-2.82678 1.56415,-2.76603 2.86492,-5.68283 4.1544,-8.58255 1.21066,-2.75952 2.28655,-5.57745 3.23932,-8.436096 0.34196,-1.025992 0.64936,-2.063197 0.98161,-3.092364 0.42419,-1.31386 1.60423,-4.875265 2.0435,-6.203837 1.22487,-3.668763 2.49058,-7.323101 3.82846,-10.952074 l -5.37703,2.541601 v 0 c -0.8351,3.499725 -1.62585,7.014748 -2.75279,10.436334 -1.871,6.005753 -3.91989,11.955976 -6.39854,17.741986 -0.94723,2.23331 -1.39026,3.375 -2.48843,5.56162 -1.98122,3.94487 -4.29772,7.72012 -7.18173,11.07555 -2.25201,2.46238 -2.88598,3.26474 -5.4178,5.5626 -4.0316,3.65901 -2.74244,2.2524 -7.08679,5.63762 -0.22132,0.17246 -0.6092,0.4205 -0.84743,0.56879 -1.24664,0.77594 -2.30397,1.46959 -3.58387,2.1893 -4.11201,2.15766 -8.22406,4.32128 -12.40887,6.33448 z"
       sodipodi:nodetypes="ccscsssscsscsscccsccscsssccc" />
    <path
       id="path131331"
       style="fill:#b54067;fill-opacity:1;stroke:none;stroke-width:0.295945px;stroke-linecap:butt;stroke-linejoin:miter;stroke-opacity:1"
       d="m 256.29201,15.456169 c -1.56441,0.0043 -3.13736,0.02911 -4.71955,0.07586 -4.96405,0.146674 -13.31818,1.21774 -17.94371,1.834459 12.61248,1.927539 14.00354,16.59651 15.44308,20.535207 1.63113,-0.04654 3.24665,-0.04315 4.83994,0.03009 57.83208,2.657873 106.47334,23.550467 145.75199,60.050151 0.45678,0.42514 0.93174,0.863227 1.37852,1.28102 20.10555,18.779624 30.31024,30.397444 32.11335,32.481744 -0.12918,-0.36592 0.79897,-3.72276 -0.55502,-6.24736 C 418.04022,98.347554 354.84976,15.194067 256.29201,15.456169 Z"
       sodipodi:nodetypes="ssccsccccs" />
    <path
       style="fill:#853556;fill-opacity:1;stroke:none;stroke-width:0.365782"
       id="path31209"
       d="m 309.10606,124.79863 c -2.88237,-2.24327 -5.75165,-4.50414 -8.61999,-6.76571 -0.84615,-0.66301 -1.6885,-1.33096 -2.53851,-1.98906 -1.00951,-0.78151 -2.04092,-1.53491 -3.04,-2.32968 -3.97808,-3.16445 -7.77901,-6.53118 -11.51157,-9.97832 -1.26271,-1.23498 -3.60783,-3.5247 -4.86075,-4.765795 -0.91142,-0.902792 -1.85148,-1.778165 -2.72489,-2.717785 -0.8515,-0.916037 -1.65977,-1.872461 -2.44597,-2.845113 -2.22723,-2.755431 -2.25553,-2.983841 -4.1367,-5.944716 -2.22795,-3.764641 -3.89664,-7.81399 -4.9519,-12.058332 -0.55446,-2.229968 -0.61488,-3.014058 -0.94306,-5.254413 -0.0372,-0.803114 -0.0743,-1.606232 -0.11174,-2.409355 0,0 -4.70853,2.443603 -4.70853,2.443603 v 0 c 0.0826,0.79736 0.16536,1.594718 0.24795,2.392069 0.16117,0.849806 0.28482,1.707636 0.48377,2.549415 0.91971,3.891048 2.5467,8.010611 4.38689,11.550381 0.53853,1.035849 1.15347,2.030133 1.73021,3.045202 0.66376,1.005956 1.28789,2.039205 1.99126,3.017876 1.82142,2.534357 2.71447,3.399055 4.76881,5.755937 0.8346,0.957532 1.6254,1.954196 2.49196,2.882896 1.55301,1.6643 3.30493,3.18531 4.98946,4.71017 0.91163,0.7987 1.81422,1.60775 2.73479,2.3961 0.75717,0.6484 5.19574,4.34219 5.91578,4.94215 3.00737,2.5744 2.82342,2.48641 5.64665,5.14142 0.76098,0.71565 1.52582,1.42718 2.28876,2.14078 1.21644,1.16206 2.45313,2.30322 3.65175,3.48362 1.09664,1.07994 2.25672,2.20359 3.11026,3.49713 0.12852,0.19485 0.22274,0.41035 0.33404,0.61551 0,0 5.82109,-3.50598 5.82109,-3.50598 z" />
    <path
       style="fill:none;stroke:none;stroke-width:0.370201px;stroke-linecap:butt;stroke-linejoin:miter;stroke-opacity:1"
       d="m 183.54464,67.83065 c 61.63855,-24.063067 83.48046,-17.584551 83.48046,-17.584551 0,0 42.34662,-5.78826 103.60125,37.665876 61.25464,43.454155 61.25464,43.454155 61.25464,43.454155 0,0 5.75894,-2.09418 -4.18836,-10.47088 -9.94734,-8.37673 -102.61459,-79.055106 -128.79179,-85.33766 -26.17717,-6.282521 -94.76141,11.517981 -105.75583,16.753424 -10.99446,5.235417 -9.60037,15.519636 -9.60037,15.519636 z"
       id="path310507" />
    <path
       style="fill:#78304e;fill-opacity:1;stroke:none;stroke-width:0.365782"
       id="path55649"
       d="m 252.82229,74.119722 c 0.31921,0.972363 0.52495,1.509519 0.69105,2.640486 0.11439,0.779196 0.15606,1.567857 0.1999,2.354193 0.13282,2.383384 0.13362,4.037148 -0.009,6.455323 -0.0727,1.232169 -0.20898,2.459749 -0.3136,3.689617 -0.7194,5.998935 -1.89269,11.937569 -3.49413,17.762799 -0.26686,0.9707 -0.56295,1.9331 -0.84444,2.89969 -1.11683,3.59911 -2.48341,7.13867 -4.12406,10.53378 -1.03454,2.14099 -1.41116,2.71375 -2.57935,4.74445 -1.11717,1.85558 -2.35975,3.63244 -3.80587,5.2474 -0.69791,0.77939 -1.50072,1.59249 -2.34078,2.22615 -0.42941,0.32392 -0.89699,0.59398 -1.34549,0.89098 -4.07654,2.40214 1.31618,-0.74154 1.95141,-1.14941 0.43552,-0.27968 -0.91672,0.48116 -1.38073,0.71055 -1.14978,0.56843 -2.32855,1.07619 -3.50359,1.58919 -1.15585,0.47851 -0.57844,0.2351 -1.7322,0.73033 0,0 -4.95117,3.91914 -4.95117,3.91914 v 0 c 1.20803,-0.53867 0.58931,-0.26568 1.85636,-0.81842 1.73716,-0.81363 3.52356,-1.5539 5.19853,-2.4931 2.15236,-1.20685 4.29288,-2.43488 6.42863,-3.67091 0.52193,-0.30201 1.02929,-0.62864 1.54394,-0.94297 0.47293,-0.33527 0.96967,-0.63925 1.4188,-1.00576 0.76633,-0.62533 1.47351,-1.44921 2.08171,-2.22108 1.26348,-1.60347 2.34759,-3.337 3.31663,-5.13196 2.57572,-4.88653 4.98617,-9.91272 6.4014,-15.27392 0.22901,-0.94684 0.47351,-1.89009 0.68732,-2.8405 0.49944,-2.22007 0.86466,-4.21937 1.28987,-6.461353 0.70455,-3.714527 1.38283,-7.434632 1.84101,-11.189603 0.55729,-4.730958 0.34739,-2.737086 0.7963,-7.36385 0.10499,-1.080861 0.23427,-2.159699 0.31119,-3.242903 0.0599,-0.84309 0.0511,-1.689837 0.099,-2.533697 0.33713,-5.964721 0.0577,0.427368 0.20968,-3.218475 0,0 -5.89818,3.163833 -5.89818,3.163833 z" />
    <path
       style="fill:#853556;fill-opacity:1;stroke:none;stroke-width:0.358742px;stroke-linecap:butt;stroke-linejoin:miter;stroke-opacity:1"
       d="m 227.75394,47.461201 c -25.03062,6.125293 -32.8876,-10.091435 -32.8876,-10.091435 0,0 -4.24856,16.86444 11.78598,17.443584 14.97378,0.541007 21.10198,-7.352217 21.10198,-7.352217 z"
       id="path310533"
       sodipodi:nodetypes="ccsc" />
    <path
       style="fill:#853556;fill-opacity:1;stroke:none;stroke-width:0.295162px;stroke-linecap:butt;stroke-linejoin:miter;stroke-opacity:1"
       d="m 245.70677,45.329795 c 0,0 0.21901,1.293326 2.84604,-4.377451 2.62712,-5.670767 4.92572,-13.70592 4.92572,-13.70592 0,0 4.707,12.512053 6.02056,14.302842 1.31355,1.790793 0,3.979494 0,3.979494 z"
       id="path310535"
       sodipodi:nodetypes="cscscc" />
    <path
       style="fill:#853556;fill-opacity:1;stroke:none;stroke-width:0.230579px;stroke-linecap:butt;stroke-linejoin:miter;stroke-opacity:1"
       d="m 222.98882,47.786701 c 0,0 6.27895,-0.185453 1.89863,-2.806168 -5.06835,-3.03273 -1.26774,-14.458728 -1.26774,-14.458728 0,0 5.5578,13.518089 12.23241,14.200328 2.36565,0.241812 0.83601,2.404742 0.83601,2.404742 z"
       id="path310537"
       sodipodi:nodetypes="cscscc" />
    <path
       style="fill:#853556;fill-opacity:1;stroke:none;stroke-width:0.315897px;stroke-linecap:butt;stroke-linejoin:miter;stroke-opacity:1"
       d="m 311.41723,47.742761 c 20.91504,6.547149 27.91741,-8.093808 27.91741,-8.093808 0,0 3.16856,15.676957 -10.3378,15.627681 -12.61334,-0.04589 -17.57959,-7.533898 -17.57959,-7.533898 z"
       id="path310539"
       sodipodi:nodetypes="ccsc" />
    <path
       style="fill:#78304e;fill-opacity:1;stroke:none;stroke-width:0.365782"
       id="path55651"
       d="m 228.57514,129.1592 c 1.53697,-4.10977 2.37884,-8.42586 3.35556,-12.69112 1.2202,-5.5151 2.1616,-11.0975 2.61979,-16.730501 0.25874,-3.18081 0.28363,-5.056145 0.38808,-8.221832 0.16209,-6.072005 -0.39101,-12.121615 -0.75793,-18.174637 -0.0324,-0.533053 -0.065,-1.066097 -0.0974,-1.599144 0,0 -5.22319,2.763851 -5.22319,2.763851 v 0 c 0.12529,0.480532 0.25082,0.961064 0.37623,1.441603 0.14241,0.631032 0.30333,1.258194 0.42741,1.893105 1.00208,5.1276 1.41909,10.368797 1.51109,15.585328 0.001,3.377859 0.0698,4.672178 -0.19967,8.086717 -0.11254,1.42688 -0.28297,2.84894 -0.46193,4.26902 -0.53196,4.22189 -1.28163,8.41886 -2.42795,12.52076 -0.39136,1.28113 -0.7446,2.57449 -1.17402,3.84335 -0.38471,1.1366 -0.82301,2.25472 -1.26716,3.36943 -0.88269,2.21538 -1.85236,4.42301 -3.18329,6.41049 0,0 6.11453,-2.76642 6.11453,-2.76642 z" />
    <path
       style="fill:#853556;fill-opacity:1;stroke:none;stroke-width:0.370201px;stroke-linecap:butt;stroke-linejoin:miter;stroke-opacity:1"
       d="m 206.16296,61.391441 c 53.05279,-25.871729 67.15925,-16.458091 115.46683,-2.260503 2.54817,0.748915 4.07222,-6.848698 4.07222,-6.848698 0,0 -49.9365,-20.45533 -76.44662,-15.918698 -24.87455,4.256734 -37.76051,10.365656 -37.76051,10.365656 z"
       id="path310541"
       sodipodi:nodetypes="cscscc" />
    <path
       style="fill:#853556;fill-opacity:1;stroke:none;stroke-width:0.219805px;stroke-linecap:butt;stroke-linejoin:miter;stroke-opacity:1"
       d="m 294.58399,45.47846 c 7.6198,-0.79449 15.27375,-9.154246 15.27375,-9.154246 0,0 -0.87437,10.998365 -5.69542,14.590774 -4.76663,3.551848 -9.57833,-5.436599 -9.57833,-5.436599 z"
       id="path310543"
       sodipodi:nodetypes="ccsc" />
    <path
       style="fill:#853556;fill-opacity:1;stroke:none;stroke-width:0.219805px;stroke-linecap:butt;stroke-linejoin:miter;stroke-opacity:1"
       d="m 269.41028,40.295592 c 7.61984,-0.794442 15.27374,-9.154198 15.27374,-9.154198 0,0 -0.87431,10.99834 -5.69537,14.590738 -4.76666,3.551848 -9.57837,-5.436562 -9.57837,-5.436562 z"
       id="path310545"
       sodipodi:nodetypes="ccsc" />
    <path
       style="fill:#853556;fill-opacity:1;stroke:none;stroke-width:0.365782"
       id="path55669"
       d="m 238.6049,149.00366 c 2.35758,-0.88917 4.86288,-1.26405 7.31286,-1.80271 1.95671,-0.43022 3.15267,-0.73257 5.10927,-1.20808 0.98459,-0.26911 1.97073,-0.53266 2.9538,-0.80737 0.28517,-0.0796 5.92439,-1.69153 6.15193,-1.75813 1.68542,-0.49309 4.47187,-1.32433 6.13631,-1.90416 1.05915,-0.36894 2.10111,-0.78555 3.15168,-1.17832 7.32927,-3.02069 14.1976,-6.99644 20.96919,-11.08776 1.92713,-1.19688 3.91158,-2.29726 5.81695,-3.52954 1.03831,-0.6715 2.07414,-1.34446 2.97314,-2.2033 0.45407,-0.4338 0.84367,-0.93042 1.26549,-1.39564 1.44344,-1.65835 2.67524,-3.47444 3.85565,-5.3235 0,0 -5.56387,2.46559 -5.56387,2.46559 v 0 c -1.00058,1.78676 -2.11725,3.50868 -3.50193,5.02786 -0.46561,0.45726 -0.90908,0.93824 -1.39681,1.37182 -2.48969,2.21302 -5.56853,3.63662 -8.32098,5.47002 -0.69673,0.42747 -1.57253,0.64982 -2.09018,1.28244 -0.46039,0.56266 2.53262,-1.42886 1.90697,-1.05853 -3.92421,2.32271 -8.01079,4.38768 -12.23647,6.10305 -1.02387,0.38046 -2.04063,0.78065 -3.07163,1.14143 -3.02458,1.05831 -6.10818,1.92043 -9.19519,2.77239 -0.98073,0.27068 -1.95816,0.5537 -2.94262,0.81058 -0.91983,0.23999 -1.8464,0.45325 -2.76959,0.67987 -2.99942,0.69518 -6.00603,1.39426 -9.0652,1.77786 -0.47354,0.0593 -0.95085,0.0836 -1.42554,0.13269 -0.22181,0.0233 -0.44251,0.0557 -0.66377,0.0836 0,0 -5.35946,4.13777 -5.35946,4.13777 z" />
    <path
       style="fill:#853556;fill-opacity:1;stroke:none;stroke-width:0.365782"
       id="path55671"
       d="m 296.46239,131.77916 c -2.76426,0.25075 -5.49099,-0.65537 -8.13207,-1.34433 -5.49619,-1.56689 -10.73993,-3.84057 -15.96208,-6.13236 -5.75628,-2.41651 -11.21086,-5.46754 -16.62922,-8.54952 -4.55963,-2.73933 -9.0551,-5.63464 -13.21971,-8.95434 -0.78417,-0.62511 -1.53822,-1.28708 -2.30733,-1.93063 -3.36721,-2.94457 -6.46661,-6.179207 -9.2747,-9.660846 -2.01281,-2.495607 -2.73049,-3.591975 -4.59222,-6.213417 -1.99787,-3.058611 -3.86317,-6.211741 -5.3721,-9.543763 -0.92367,-2.039672 10.17666,5.30303 9.47088,3.273646 l -13.37259,2.051339 v 0 c 0,0 2.53499,1.877803 5.60008,6.382889 2.17087,3.142001 4.35913,6.25829 6.75742,9.233702 1.12299,1.39324 3.13091,3.76723 4.4233,5.05294 0.70953,0.70584 1.48704,1.33986 2.23055,2.00978 0.79093,0.63839 1.56799,1.29441 2.37288,1.91517 1.92909,1.48774 3.15493,2.30001 5.16516,3.68686 2.65485,1.83159 5.3077,3.67104 8.08329,5.31824 5.38681,3.12802 10.91045,6.01494 16.54655,8.66896 5.17071,2.22761 10.33289,4.48618 15.61917,6.43004 1.24449,0.46093 2.48235,0.9398 3.73018,1.39167 0.46341,0.16772 1.70631,0.59787 2.26378,0.73968 0.39489,0.10038 0.70702,0.12621 1.09767,0.171 l 5.50111,-3.99678 z"
       sodipodi:nodetypes="scccscscsccscsscsscccssccs" />
    <path
       style="fill:#9a3756;fill-opacity:1;stroke:none;stroke-width:0.365782"
       id="path55677"
       d="m 242.80993,76.658785 c 1.64199,4.627373 2.56472,9.47827 3.55649,14.275895 0.9822,5.005137 1.45715,10.08742 2.02732,15.15002 0.23796,2.11278 0.49246,4.22366 0.73833,6.33553 0.78808,5.68189 1.67612,11.34926 2.54359,17.01948 0.15189,0.95295 0.3026,1.90614 0.45559,2.85891 0.41,2.55339 0.62396,3.66453 0.92321,6.25893 0.32916,2.85397 0.4856,5.71532 0.61261,8.58356 0.0812,3.07979 0.23344,6.15639 0.27354,9.23738 0.0334,1.13388 -0.006,2.25709 -0.13457,3.38318 -0.0164,0.13822 -0.0339,0.27628 -0.0506,0.41441 0,0 5.99122,-2.98793 5.99122,-2.98793 v 0 c 0.007,-0.13416 0.0145,-0.26813 0.021,-0.40219 0.0539,-1.12057 0.0529,-2.23989 -0.17646,-3.34538 -0.45893,-2.89936 -1.01088,-5.78524 -1.28994,-8.71081 -0.36443,-2.78479 -0.75878,-5.56807 -1.07705,-8.3586 -0.35308,-3.09567 -0.61785,-6.20273 -1.09713,-9.28343 -0.19407,-1.30791 -0.61946,-4.20879 -0.833,-5.5177 -0.62106,-3.8065 -1.37323,-7.59256 -1.85538,-11.42121 -1.20349,-7.05436 -2.25361,-14.133557 -3.30896,-21.211388 -0.46537,-3.477305 -0.9357,-6.95034 -1.20207,-10.450073 -0.0545,-0.716329 -0.19313,-3.044271 -0.18336,-3.959072 10e-4,-0.310656 0.0479,-0.619494 0.0719,-0.929237 0,0 -6.00504,3.059725 -6.00504,3.059725 z" />
    <path
       style="fill:#a23a5a;fill-opacity:1;stroke:none;stroke-width:0.365782"
       id="path55667"
       d="m 263.3959,74.528385 c 0.15443,0.30295 0.32872,0.596538 0.46319,0.908845 1.11132,2.581226 1.80146,5.333986 2.42443,8.065037 0.91259,4.000805 0.96044,4.650957 1.66461,8.80033 0.50627,3.592742 1.08011,7.201213 1.30704,10.827103 0.23228,3.71213 0.17154,7.61967 -0.13107,11.32823 -0.36306,4.45008 -0.63343,5.23312 -1.46447,9.4531 -1.01402,4.54687 -2.89925,8.82383 -5.48414,12.6936 -1.25302,1.87586 -2.3477,3.14875 -3.76004,4.89395 -3.01949,3.53096 -6.59283,6.522 -10.36856,9.20663 0,0 5.60127,-2.2294 5.60127,-2.2294 v 0 c 3.33175,-2.69524 6.51207,-5.60321 9.2618,-8.89959 1.9049,-2.44979 3.81771,-4.90896 5.26331,-7.67156 1.59251,-3.04334 2.56359,-6.34174 3.03759,-9.7364 0.40158,-3.8729 0.59029,-5.09921 0.73126,-9.13549 0.15788,-4.52561 0.048,-6.67165 -0.0988,-11.24421 -0.2295,-7.162997 -0.0896,-4.435388 -0.63385,-11.206103 -0.35032,-3.04652 -0.71423,-6.091509 -1.05136,-9.139522 -0.32861,-2.970916 -0.67963,-5.963092 -0.81574,-8.951685 -0.0186,-0.40335 -0.006,-0.807524 -0.006,-1.211279 0,0 -5.94076,3.248414 -5.94076,3.248414 z" />
    <path
       id="path95411"
       style="fill:#28211a;fill-opacity:1;stroke:none;stroke-width:0.45484"
       d="m 259.14758,65.874268 a 46.562104,44.956512 0 0 0 -46.56214,44.956902 46.562104,44.956512 0 0 0 46.56214,44.95585 46.562104,44.956512 0 0 0 46.56213,-44.95585 46.562104,44.956512 0 0 0 -46.56213,-44.956902 z m 0.60992,14.228804 a 32.31653,31.202167 0 0 1 32.31589,31.201678 32.31653,31.202167 0 0 1 -32.31589,31.20267 32.31653,31.202167 0 0 1 -32.31696,-31.20267 32.31653,31.202167 0 0 1 32.31696,-31.201678 z" />
    <path
       id="ellipse47946"
       style="fill:#c0b7a8;fill-opacity:1;stroke:none;stroke-width:0.534228"
       d="m 259.56897,58.252845 a 54.688862,52.803038 0 0 0 -54.68889,52.803485 54.688862,52.803038 0 0 0 54.68889,52.8023 54.688862,52.803038 0 0 0 54.6889,-52.8023 54.688862,52.803038 0 0 0 -54.6889,-52.803485 z m 0.71636,16.712236 a 37.956924,36.648065 0 0 1 37.95619,36.647499 37.956924,36.648065 0 0 1 -37.95619,36.64869 37.956924,36.648065 0 0 1 -37.95741,-36.64869 37.956924,36.648065 0 0 1 37.95741,-36.647499 z" />
    <path
       id="path110236"
       style="fill:#a9a194;fill-opacity:1;stroke:none;stroke-width:0.534228"
       d="m 260.22084,58.153106 c -0.61519,0.01197 -2.84762,0.03414 -3.46202,0.06623 2.1129,3.206534 7.55221,9.862974 11.63763,17.759497 17.64434,3.495991 29.54797,18.483611 29.56046,35.874547 -10e-4,13.5721 -8.93065,26.514 -21.35303,32.86581 -1.41782,8.61161 -7.09702,15.63686 -7.86719,18.40643 30.31433,-6.33331 44.1129,-19.93693 46.00278,-51.82847 2.5e-4,-29.162505 -24.31461,-53.144049 -54.51863,-53.14403 z"
       sodipodi:nodetypes="cccccccc" />
    <path
       id="path310493"
       style="fill:#de4f7e;fill-opacity:1;stroke:none;stroke-width:0.295945px;stroke-linecap:butt;stroke-linejoin:miter;stroke-opacity:1"
       d="m 433.15615,131.74484 c 0,0 8.84141,-1.9736 -39.52866,7.43869 -108.36164,24.89536 -187.06546,34.6334 -270.67017,-6.01501 27.59718,14.32795 49.18513,30.29593 119.34936,35.61667 44.15442,3.34835 109.48128,-12.2892 154.97952,-23.43594 29.49127,-7.22513 35.86995,-13.60441 35.86995,-13.60441 z"
       sodipodi:nodetypes="cccssc" />
    <path
       style="fill:#853556;fill-opacity:1;stroke:none;stroke-width:0.616428px;stroke-linecap:butt;stroke-linejoin:miter;stroke-opacity:1"
       d="M 93.686687,124.98843 C 103.22159,122.6047 212.19166,50.041933 258.50452,49.39018 309.92438,48.666559 386.20427,88.210913 386.20427,88.210913 L 333.08117,56.200839 258.16396,41.557931 197.20862,58.584566 96.070417,120.22097 Z"
       id="path167116"
       sodipodi:nodetypes="cscccccc" />
    <path
       style="fill:#de4f7e;fill-opacity:1;stroke:none;stroke-width:0.370201px;stroke-linecap:butt;stroke-linejoin:miter;stroke-opacity:1"
       d="m 141.52226,141.32095 c 0,0 -11.35418,-15.96813 -23.14361,2.78771 -10.25805,16.31961 -8.66097,21.30718 -8.66097,21.30718 0,0 9.23152,-15.68518 19.34078,-21.28197 8.70263,-4.818 12.4638,-2.81289 12.4638,-2.81289 z"
       id="path25682"
       sodipodi:nodetypes="cscsc" />
    <path
       style="fill:#de4f7e;fill-opacity:1;stroke:none;stroke-width:0.370201px;stroke-linecap:butt;stroke-linejoin:miter;stroke-opacity:1"
       d="m 165.89882,150.06784 c 0,0 -12.66585,-15.54835 -21.84792,3.15794 -8.18871,16.68264 -6.43975,31.30264 -6.43975,31.30264 0,0 3.6785,-25.49555 16.56427,-32.20294 8.82355,-4.59287 11.7234,-2.25762 11.7234,-2.25762 z"
       id="path25684"
       sodipodi:nodetypes="cscscc" />
    <path
       style="fill:#de4f7e;fill-opacity:1;stroke:none;stroke-width:0.370201px;stroke-linecap:butt;stroke-linejoin:miter;stroke-opacity:1"
       d="m 237.25358,160.5537 c 5.79115,-7.03289 10.82237,-2.35026 11.80094,-0.12824 0,0 2.22106,3.73745 1.41064,8.80466 -1.98378,12.40418 -4.5253,39.70874 -6.19796,34.31909 -1.55172,-4.99996 -3.76978,-26.08513 -6.1214,-35.19592 -0.48547,-4.78961 -0.81207,-7.01185 -0.89222,-7.79968 z"
       id="path25719"
       sodipodi:nodetypes="ccssccc" />
    <path
       style="fill:#de4f7e;fill-opacity:1;stroke:none;stroke-width:0.370201px;stroke-linecap:butt;stroke-linejoin:miter;stroke-opacity:1"
       d="m 210.08367,159.46502 c 0,0 -13.13124,-16.93959 -23.14363,2.78771 -7.92681,15.61817 -3.10793,37.78116 -3.10793,37.78116 0,0 4.97415,-32.71449 15.08344,-38.31125 8.70264,-4.818 11.16812,-2.25762 11.16812,-2.25762 z"
       id="path28649"
       sodipodi:nodetypes="cscscc" />
    <text
       xml:space="preserve"
       transform="matrix(0.26458333,0,0,0.26458333,42.639163,1.773773)"
       id="text2992"
       style="font-size:40px;line-height:1.25;font-family:Ravenscroft;-inkscape-font-specification:Ravenscroft;white-space:pre;shape-inside:url(#rect2994)" />
    <g
       aria-label="Projects"
       id="text14199"
       style="font-size:108.832px;line-height:1.25;font-family:Ravenscroft;-inkscape-font-specification:Ravenscroft;fill:#d5cbba;stroke-width:2.7208"
       inkscape:path-effect="#path-effect18226"
       transform="translate(-2.3386084,-9.9390856)" />
    <g
       aria-label="PROJECTS"
       id="text25870"
       style="font-size:89.9129px;line-height:1.25;font-family:Ravenscroft;-inkscape-font-specification:Ravenscroft;fill:#d5cbba;fill-opacity:1;stroke-width:2.24782"
       inkscape:path-effect="#path-effect27013"
       transform="translate(0,3.5079125)">
      <path
         d="m 189.18342,212.24795 c -3.75147,-0.70005 -7.48722,-1.47741 -11.20373,-2.33197 0.66221,1.19817 0.98159,2.25077 0.94454,3.1645 0.0688,0.93554 -0.096,2.31338 -0.49805,4.12638 l -10.58863,47.75146 c -0.40245,1.81495 -0.85849,3.12422 -1.37403,3.93143 -0.36071,0.71676 -1.20993,1.51264 -2.55658,2.37188 4.11403,0.9424 8.2442,1.80806 12.38791,2.59689 -0.41692,-0.62837 -0.77227,-1.21606 -1.067,-1.76177 -0.23035,-0.53325 -0.36847,-1.01864 -0.41568,-1.45544 -0.0472,-0.43696 -0.0387,-0.98496 0.0254,-1.64443 0.0757,-0.71836 0.20704,-1.54738 0.3934,-2.48827 l 3.33638,-16.84453 c 1.20016,0.23769 2.20089,0.3982 2.99277,0.48629 0.79399,0.0883 1.42972,0.17457 1.91223,0.26231 0.98477,0.0572 1.86499,-5e-4 2.63823,-0.17046 0.84373,-0.21859 1.51504,-0.5309 2.01414,-0.93333 0.34951,-0.2453 0.67315,-0.52572 0.97099,-0.84108 0.29794,-0.31546 0.55512,-0.57679 0.7728,-0.78437 0.34486,-0.61219 0.69045,-1.61804 1.0374,-3.01947 0.40631,-1.39273 0.77749,-3.15173 1.11882,-5.28337 l 2.33111,-14.55794 c 0.63413,-3.96023 0.65077,-6.88026 0.0777,-8.73102 -0.60002,-2.04565 -2.34774,-3.30206 -5.25014,-3.84366 0,-1e-5 0,-2e-5 0,-3e-5 z m -9.18369,30.18445 4.75129,-23.98802 c 0.62131,0.12322 1.24305,0.24436 1.86522,0.36343 1.2952,0.24786 1.77576,1.30796 1.42858,3.19533 l -3.35044,18.2142 c -0.36842,2.0029 -1.25583,2.87949 -2.66922,2.60928 -0.67558,-0.12915 -1.35073,-0.26056 -2.02543,-0.39422 z"
         id="path26978"
         inkscape:original-d="m 182.85465,209.03378 h -12.76763 q 1.52852,1.52852 1.79826,2.87721 0.44956,1.34869 0.44956,4.13599 v 48.91262 q 0,2.7873 -0.44956,4.136 -0.26974,1.16886 -1.79826,2.87721 h 11.50885 q -0.7193,-0.80922 -1.25878,-1.52852 -0.44956,-0.7193 -0.62939,-1.34869 -0.17983,-0.62939 -0.26974,-1.61844 -0.0899,-1.07895 -0.0899,-2.51756 v -17.17336 q 1.79826,0 2.96712,-0.0899 1.16887,-0.0899 1.88818,-0.0899 1.4386,-0.17982 2.51756,-0.62939 1.16886,-0.53948 1.79825,-1.25878 0.44957,-0.44956 0.80922,-0.98904 0.35965,-0.53948 0.62939,-0.89913 0.35965,-0.98904 0.53948,-3.14695 0.26974,-2.15791 0.26974,-5.39478 v -14.74571 q 0,-6.02417 -1.43861,-8.63164 -1.52852,-2.87721 -6.47373,-2.87721 z m -3.5066,31.3796 v -24.45631 h 2.068 q 2.15791,0 2.15791,2.87721 v 18.52206 q 0,3.05704 -2.15791,3.05704 z"
         style="fill:#d5cbba;fill-opacity:1" />
      <path
         d="m 198.73946,271.83968 2.92194,-23.46157 c 0.70793,0.0882 1.29618,0.15897 1.70531,0.20765 0.47884,0.057 0.71489,0.1144 0.70795,0.17392 0.45827,0.23448 0.81042,0.60634 1.05716,1.11668 0.24667,0.5102 0.33134,1.12277 0.25171,1.83743 l -2.26966,20.37034 c -0.0863,0.77445 -0.19145,1.42577 -0.31609,1.95473 -0.12465,0.52899 -0.20046,0.91211 -0.22717,1.15053 -0.29491,0.87153 -0.8088,1.6281 -1.5455,2.26688 0.48908,0.35855 0.91641,0.67777 1.28365,0.96029 0.36689,0.28224 0.60661,0.51933 0.71853,0.71253 0.2764,0.51254 0.56074,0.96518 0.8525,1.35786 0.28548,0.45239 0.47937,0.83399 0.58066,1.14597 0.68911,1.09743 1.2633,2.05635 1.72136,2.88555 0.52407,0.83448 1.00922,1.42298 1.45054,1.76535 1.24607,1.14048 2.61952,1.77349 4.10298,1.89496 0.40457,0.0331 0.8092,0.0656 1.21388,0.0973 -0.64821,-1.25307 -1.15392,-2.49746 -1.52119,-3.73087 -0.30557,-1.16826 -0.57128,-2.36382 -0.79792,-3.58666 -0.19175,-0.85917 -0.29189,-1.98036 -0.30118,-3.36531 0.0562,-1.37947 0.16423,-2.96304 0.3233,-4.75455 l 1.46295,-16.47615 c 0.36535,-4.11463 0.45494,-6.85308 0.27516,-8.18867 -0.46888,-1.48764 -1.7494,-2.53388 -3.83493,-3.17138 1.26108,-0.0501 2.41004,-0.7821 3.43023,-2.19185 1.01707,-1.35331 1.66379,-3.72721 1.96618,-7.13282 l 0.77918,-8.77535 c 0.18011,-2.02847 0.18972,-3.71464 0.0347,-5.05122 -0.1552,-1.33784 -0.33084,-2.40713 -0.52922,-3.20808 -0.52167,-1.43295 -1.32591,-2.35244 -2.42072,-2.7661 -0.36927,-0.0982 -0.79107,-0.20244 -1.26669,-0.31382 -0.41569,-0.16524 -0.99691,-0.28869 -1.74548,-0.37386 -3.74183,-0.42569 -7.47435,-0.92674 -11.19416,-1.50305 0.55326,0.99536 0.99832,2.03215 1.33252,3.11171 -0.0166,0.48225 -0.0505,1.08308 -0.1015,1.80254 -0.051,0.71917 -0.15055,1.58347 -0.2991,2.59113 l -7.06706,47.93677 c -0.14863,1.00818 -0.30722,1.86273 -0.47666,2.56493 -0.16063,0.64268 -0.3085,1.19635 -0.44347,1.66104 -0.12612,0.40528 -0.45083,0.81188 -0.97619,1.21757 -0.45236,0.35682 -0.98208,0.79015 -1.59533,1.30243 3.93895,0.60944 7.88783,1.15015 11.84444,1.62205 -0.68515,-0.9264 -1.11416,-1.73519 -1.29269,-2.42115 -0.093,-0.31356 -0.10592,-0.7378 -0.0392,-1.27311 0.0667,-0.53524 0.14813,-1.18943 0.24442,-1.96257 -2e-5,0 -3e-5,10e-6 -5e-5,10e-6 z m 3.92185,-31.49025 2.38866,-19.17962 c 0.54596,0.068 1.09213,0.13446 1.63849,0.19932 1.36242,0.16176 1.94043,1.21746 1.7213,3.18423 l -1.48325,13.31219 c -0.21886,1.96422 -1.05485,2.87009 -2.51632,2.6966 -0.58317,-0.0692 -1.16613,-0.14013 -1.74888,-0.21272 z"
         id="path26980"
         inkscape:original-d="m 201.6464,266.48812 v -23.64709 q 1.07895,0 1.70834,0 0.71931,0 0.71931,0.0899 0.7193,0.26974 1.16886,0.98904 0.44957,0.71931 0.44957,1.79826 v 20.50014 q 0,1.16887 -0.0899,1.97809 -0.0899,0.80921 -0.0899,1.16886 -0.26974,1.3487 -1.16886,2.42765 0.7193,0.44957 1.25878,0.80922 0.53947,0.35965 0.7193,0.62939 0.44956,0.7193 0.89913,1.25878 0.44956,0.62939 0.62939,1.07895 1.07895,1.52852 1.79826,2.69739 0.80921,1.16887 1.4386,1.61843 1.79826,1.52852 3.77635,1.52852 h 1.07895 q -0.98904,-1.79825 -1.61843,-3.59651 -0.53948,-1.70835 -0.98904,-3.50661 -0.35966,-1.25878 -0.53948,-3.32677 -0.0899,-2.068 -0.0899,-4.76539 V 249.6744 q 0,-6.20399 -0.44957,-8.18208 -0.89913,-2.1579 -4.13599,-2.7873 1.88817,-0.26973 3.23686,-2.51756 1.3487,-2.15791 1.3487,-7.28294 v -8.81147 q 0,-3.05703 -0.44957,-5.03512 -0.44956,-1.97808 -0.89913,-3.14695 -1.07895,-2.068 -2.96712,-2.51756 -0.62939,-0.0899 -1.43861,-0.17983 -0.7193,-0.17982 -1.97808,-0.17982 h -12.58781 q 1.16887,1.34869 1.97808,2.87721 0.0899,0.7193 0.17983,1.79826 0.0899,1.07895 0.0899,2.60747 v 48.46306 q 0,1.52852 -0.0899,2.60747 -0.0899,0.98904 -0.17983,1.70835 -0.0899,0.62939 -0.7193,1.34869 -0.53948,0.62939 -1.25878,1.52852 h 10.87946 q -1.07895,-1.25878 -1.43861,-2.24782 -0.17982,-0.44957 -0.17982,-1.25878 0,-0.80922 0,-1.97809 z m 0,-31.73925 v -19.33128 h 1.79826 q 2.24782,0 2.24782,2.96713 v 13.39702 q 0,2.96713 -2.24782,2.96713 z"
         style="fill:#d5cbba;fill-opacity:1" />
      <path
         d="m 236.03569,268.74139 0.53073,-38.65335 c 0.0214,-1.55812 0.0395,-2.87653 0.0543,-3.95523 0.0148,-1.07833 -0.0296,-1.88884 -0.13198,-2.42938 -0.0948,-1.08002 -0.30061,-2.0125 -0.615,-2.79667 -0.25889,-0.84335 -0.62749,-1.50936 -1.10517,-1.99859 -1.69489,-1.95349 -3.75033,-2.96938 -6.21448,-3.07513 -2.57135,-0.11035 -4.72928,0.63201 -6.51872,2.25688 -0.99278,1.07558 -1.7123,2.34618 -2.14887,3.81664 -0.14843,0.53006 -0.31044,1.23934 -0.48664,2.12778 -0.17177,0.82842 -0.2983,1.78108 -0.37796,2.85664 l -3.04765,41.14998 c -0.0885,1.19565 -0.10236,2.24573 -0.0399,3.15202 0.0625,0.90598 0.13477,1.69243 0.21647,2.35931 0.28402,1.46266 0.94425,2.74215 1.98861,3.83184 1.90768,1.9266 4.46712,2.97958 7.63456,3.1159 3.1675,0.13632 5.77461,-0.69422 7.77553,-2.45054 0.738,-0.82435 1.31262,-1.9829 1.72523,-3.47521 0.4787,-1.55224 0.72879,-3.49449 0.7609,-5.83289 z m -6.01226,-40.0749 -1.41734,39.26012 c -0.0368,1.01842 -0.0999,1.88525 -0.19012,2.60187 -0.088,0.65656 -0.203,1.16196 -0.34511,1.51659 -0.3019,1.18789 -0.97156,1.76337 -2.00722,1.71881 -1.16486,-0.0501 -1.91492,-0.62796 -2.2471,-1.72432 -0.0434,-0.42221 -0.0822,-0.93422 -0.116,-1.53601 -0.0339,-0.60208 -0.0247,-1.41118 0.027,-2.42899 l 2.03203,-40.04291 c 0.0516,-1.01721 0.12058,-1.82447 0.2062,-2.41991 0.0857,-0.59577 0.16797,-1.13171 0.24703,-1.60782 0.38779,-1.12108 1.07302,-1.65672 2.05949,-1.61437 0.82193,0.0353 1.34619,0.68432 1.5755,1.95249 0.0948,0.42323 0.15702,0.99546 0.18641,1.71608 0.0294,0.72045 0.026,1.59046 -0.0107,2.60837 z"
         id="path26982"
         inkscape:original-d="m 236.17299,260.82361 v -38.66255 q 0,-2.33773 0,-3.95617 0,-1.61843 -0.17982,-2.42765 -0.17983,-1.61843 -0.71931,-2.7873 -0.44956,-1.25878 -1.25878,-1.97808 -2.87721,-2.87721 -7.0132,-2.87721 -4.31582,0 -7.10312,2.60747 -1.52852,1.70835 -2.068,3.95617 -0.17983,0.80922 -0.35965,2.15791 -0.17983,1.25878 -0.17983,2.87721 v 41.27002 q 0,1.79826 0.17983,3.14696 0.17982,1.34869 0.35965,2.33773 0.53948,2.15791 2.068,3.68643 2.7873,2.69739 7.10312,2.69739 4.31582,0 7.0132,-2.69739 0.98905,-1.25878 1.52852,-3.5066 0.62939,-2.33774 0.62939,-5.84434 z m -7.0132,-39.92133 v 39.29194 q 0,1.52852 -0.0899,2.60747 -0.0899,0.98904 -0.26974,1.52852 -0.35965,1.79826 -1.79825,1.79826 -1.61844,0 -2.15791,-1.61843 -0.0899,-0.62939 -0.17983,-1.52852 -0.0899,-0.89913 -0.0899,-2.42765 v -40.10115 q 0,-1.52852 0.0899,-2.42765 0.0899,-0.89913 0.17983,-1.61844 0.53947,-1.70834 2.15791,-1.70834 1.34869,0 1.79825,1.88817 0.17983,0.62939 0.26974,1.70835 0.0899,1.07895 0.0899,2.60747 z"
         style="fill:#d5cbba;fill-opacity:1" />
      <path
         d="m 258.28426,268.03473 -2.3262,-43.72267 c -0.0637,-1.19706 -0.11464,-2.15471 -0.15285,-2.87295 -0.0382,-0.71807 -0.0412,-1.28846 -0.009,-1.71017 0.13739,-0.48764 0.32661,-1.00798 0.56671,-1.56178 0.29413,-0.55682 0.66732,-1.11844 1.11827,-1.68611 -3.38311,0.20415 -6.77054,0.34684 -10.15981,0.42815 0.83152,0.99956 1.42734,1.94056 1.7804,2.82986 0.0651,0.35783 0.13573,0.89536 0.21228,1.61258 0.0765,0.71695 0.13077,1.58532 0.16207,2.60347 l 1.36483,44.39152 c 0.0295,0.95872 0.0234,1.79802 -0.0188,2.51906 -0.0422,0.72085 -0.0903,1.26196 -0.14404,1.62333 -0.11098,0.60295 -0.38831,1.06089 -0.83313,1.37287 -0.38163,0.25021 -0.83215,0.38175 -1.35036,0.39377 -1.23193,0.0286 -1.98771,-0.58955 -2.26624,-1.84321 -0.13587,-0.41744 -0.24142,-0.98502 -0.31689,-1.70324 -0.0755,-0.71841 -0.12124,-1.61626 -0.13799,-2.69524 l -0.20931,-13.48373 c -2.33304,1.02525 -4.68829,2.02487 -7.06518,2.99817 l -0.0761,11.59691 c -0.0319,4.85844 0.78246,8.06412 2.49627,9.62657 1.50864,1.37542 3.9625,2.05821 7.33001,1.984 1.84806,-0.0407 3.4285,-0.27011 4.73286,-0.67654 1.37093,-0.40901 2.43132,-1.05481 3.1794,-1.92854 1.69024,-1.94252 2.37805,-5.30365 2.12308,-10.09608 z"
         id="path26984"
         inkscape:original-d="m 257.12272,260.55387 v -43.78758 q 0,-1.79826 0,-2.87722 0,-1.07895 0.0899,-1.70834 0.26974,-0.7193 0.7193,-1.52852 0.53948,-0.80922 1.34869,-1.61843 h -11.32902 q 1.34869,1.52852 1.88817,2.87721 0.0899,0.53948 0.17982,1.61843 0.0899,1.07896 0.0899,2.60748 v 44.41697 q 0,1.43861 -0.0899,2.51756 -0.0899,1.07896 -0.17982,1.61843 -0.17983,0.89913 -0.80922,1.3487 -0.53947,0.35965 -1.25878,0.35965 -1.70834,0 -2.06799,-1.88817 -0.17983,-0.62939 -0.26974,-1.70835 -0.0899,-1.07895 -0.0899,-2.69738 v -13.48694 l -6.92329,2.96713 v 11.59876 q 0,7.28295 2.33774,9.62068 2.06799,2.068 6.65355,2.068 2.51756,0 4.31582,-0.53948 1.88817,-0.53948 2.96713,-1.79826 2.42764,-2.7873 2.42764,-9.98033 z"
         style="fill:#d5cbba;fill-opacity:1" />
      <path
         d="m 278.08285,214.52305 c -4.13257,0.53725 -8.24218,0.98685 -12.32976,1.33539 -2.27155,0.20499 -4.54597,0.3821 -6.8225,0.53135 0.46468,0.51023 0.82221,0.99622 1.07102,1.45983 0.30275,0.45982 0.5507,0.8928 0.74312,1.29979 0.33439,0.87637 0.57146,2.24353 0.70587,4.09569 l 3.52712,48.60319 c 0.14324,1.97383 0.086,3.41833 -0.17634,4.33939 -0.16147,0.49216 -0.38896,0.98891 -0.68329,1.48975 -0.22884,0.49629 -0.58981,1.0016 -1.08441,1.51434 2.7879,-0.18176 5.57391,-0.39752 8.35725,-0.64732 4.98473,-0.46284 9.93054,-1.02257 14.83836,-1.66576 l -1.38489,-10.60046 c -0.28424,1.24537 -0.70574,2.20562 -1.26372,2.88026 -0.50193,0.60687 -1.29426,0.97822 -2.375,1.10839 -2.8605,0.34454 -5.73194,0.65838 -8.61452,0.93877 l -2.08243,-21.83556 c 1.38041,-0.13137 2.75985,-0.27162 4.13835,-0.42038 1.13877,-0.12288 2.11998,-0.0236 2.94834,0.30205 0.44762,0.18906 0.88346,0.52952 1.3086,1.02144 0.42516,0.49194 0.8626,1.07232 1.31309,1.74102 l -1.85438,-15.06968 c -0.31031,0.82251 -0.6343,1.55545 -0.9711,2.19873 -0.3368,0.64328 -0.78449,1.11804 -1.34201,1.42306 -0.265,0.27147 -0.658,0.46691 -1.17847,0.58478 -0.52351,0.0579 -1.14562,0.12551 -1.84495,0.19885 -1.08364,0.11364 -2.16744,0.2217 -3.25144,0.32399 l -1.80932,-18.97188 c 1.9555,-0.18028 3.91434,-0.38209 5.87662,-0.60407 1.32637,-0.15005 2.45111,0.10571 3.38142,0.7751 0.92968,0.66895 1.72104,1.74504 2.37228,3.23028 z"
         id="path26986"
         inkscape:original-d="m 282.20844,209.03378 h -21.30936 q 0.7193,0.80921 1.07895,1.52852 0.44957,0.7193 0.71931,1.34869 0.44956,1.34869 0.44956,4.13599 v 48.7328 q 0,2.96712 -0.44956,4.31582 -0.26974,0.7193 -0.71931,1.4386 -0.35965,0.71931 -1.07895,1.43861 h 21.30936 v -10.69964 q -0.6294,1.79826 -1.52852,2.69739 -0.80922,0.80922 -2.33774,0.80922 h -8.09216 v -21.93875 h 4.13599 q 1.70835,0 2.87722,0.62939 0.62939,0.35965 1.16886,1.16887 0.53948,0.80921 1.07896,1.88817 v -15.19528 q -0.62939,1.16886 -1.25878,2.06799 -0.62939,0.89913 -1.52852,1.25878 -0.44957,0.35966 -1.25878,0.44957 -0.80922,0 -1.88817,0 h -3.32678 v -19.06154 h 6.38382 q 2.1579,0 3.5066,1.16887 1.34869,1.16887 2.068,3.5066 z"
         style="fill:#d5cbba;fill-opacity:1" />
      <path
         d="m 295.26152,236.83579 c 1.8598,-2.13459 3.95752,-3.41547 6.33398,-3.85246 l -2.0082,-10.96324 c -0.42092,-2.29792 -0.95916,-4.11969 -1.60722,-5.46197 -0.60323,-1.41219 -1.33432,-2.43616 -2.19071,-3.07329 -2.07801,-1.39241 -4.44556,-1.85826 -7.1258,-1.42253 -2.40649,0.39123 -4.32879,1.46862 -5.80399,3.25534 -0.42433,0.54537 -0.75133,1.19682 -0.98106,1.95485 -0.18309,0.69097 -0.30439,1.43363 -0.36325,2.22774 -0.02,0.66787 -0.0242,1.45441 -0.0129,2.35967 0.003,0.84559 0.0857,1.8626 0.24853,3.04893 l 5.60854,40.85076 c 0.16295,1.18692 0.36809,2.21614 0.61697,3.08894 0.2488,0.87254 0.478,1.59659 0.68716,2.1722 0.67458,1.5997 1.58231,2.74221 2.72464,3.42527 1.08638,0.75118 2.2711,1.24286 3.5494,1.47317 1.34212,0.22059 2.71778,0.21849 4.12072,-0.007 3.25298,-0.52248 5.64473,-1.82021 7.16376,-3.85259 1.36538,-1.82681 1.6089,-5.03521 0.76637,-9.63481 l -2.96371,-16.17962 c -2.13581,1.45736 -4.28919,2.9002 -6.4627,4.32688 l 2.00371,11.96396 c 0.18805,1.12278 0.31042,2.04323 0.36684,2.76283 0.0564,0.71942 0.0518,1.26662 -0.014,1.64194 -0.0134,1.45913 -0.64779,2.29407 -1.9058,2.49637 -1.00635,0.16182 -1.7247,-0.30219 -2.15207,-1.38692 -0.48835,-0.65182 -0.87785,-1.92344 -1.1729,-3.81795 l -6.23522,-40.03613 c -0.27638,-1.77466 -0.31073,-3.10453 -0.10638,-3.98488 0.0558,-1.10051 0.52738,-1.72032 1.41641,-1.86483 1.11131,-0.18065 1.89257,0.38566 2.34304,1.70754 0.19068,0.45386 0.37356,1.03069 0.54835,1.73015 0.16486,0.64022 0.33668,1.4926 0.51475,2.55583 z"
         id="path26988"
         inkscape:original-d="m 296.59452,233.66991 q 3.32677,-2.69738 7.0132,-2.69738 v -11.1492 q 0,-3.50661 -0.62939,-5.66452 -0.53947,-2.24782 -1.70834,-3.41669 -2.87721,-2.60747 -7.28295,-2.60747 -3.95616,0 -6.74346,2.33773 -0.80922,0.71931 -1.3487,1.79826 -0.44956,0.98904 -0.7193,2.15791 -0.17983,0.98904 -0.35965,2.33774 -0.17983,1.25878 -0.17983,3.05704 v 41.27002 q 0,1.79826 0.17983,3.14695 0.17982,1.34869 0.35965,2.24782 0.62939,2.51756 2.068,3.77634 1.34869,1.3487 3.05703,1.97809 1.79826,0.62939 3.77635,0.62939 4.58555,0 7.19303,-2.60748 2.33773,-2.33773 2.33773,-9.35094 v -16.45406 l -7.0132,3.14695 v 12.13824 q 0,1.70835 -0.0899,2.7873 -0.0899,1.07896 -0.26973,1.61844 -0.35966,2.15791 -2.15791,2.15791 -1.43861,0 -1.79826,-1.70835 -0.53948,-1.07895 -0.53948,-3.95617 v -40.55072 q 0,-2.69738 0.53948,-3.95616 0.35965,-1.61844 1.79826,-1.61844 1.79825,0 2.15791,2.068 0.17982,0.7193 0.26973,1.79826 0.0899,0.98904 0.0899,2.60747 z"
         style="fill:#d5cbba;fill-opacity:1" />
      <path
         d="m 326.21038,261.88164 -10.36905,-47.82659 c 0.85057,-0.18533 1.70189,-0.37253 2.55399,-0.56152 2.44149,-0.54151 4.61769,0.34551 6.53957,2.67452 l -2.2914,-9.9981 c -7.66741,1.76008 -15.25177,3.39195 -22.75825,4.81989 l 1.89599,10.07112 c 0.44752,-1.67068 1.09018,-2.89275 1.93336,-3.66794 0.34862,-0.31235 0.76452,-0.57727 1.24815,-0.79527 0.47209,-0.27684 1.01751,-0.47733 1.63726,-0.6022 0.84512,-0.17028 1.69098,-0.34282 2.53758,-0.51751 l 9.94535,48.5449 c 0.20458,0.99861 0.3543,1.8857 0.44888,2.66196 0.1443,0.70492 0.19072,1.246 0.1389,1.6237 -0.14143,0.8846 -0.63192,1.96446 -1.47917,3.23333 3.99066,-0.79604 7.95587,-1.6302 11.8962,-2.49448 -1.08125,-0.80679 -1.95706,-1.7213 -2.62886,-2.74183 -0.35002,-0.72261 -0.76547,-2.19614 -1.24848,-4.42398 -10e-6,0 -10e-6,0 -2e-5,0 z"
         id="path26990"
         inkscape:original-d="m 321.77016,264.15039 v -48.91262 h 2.69738 q 3.86626,0 5.93425,4.04608 V 209.03378 H 306.0354 v 10.25007 q 1.16886,-2.33774 2.69738,-3.23687 0.62939,-0.35965 1.43861,-0.53947 0.80922,-0.26974 1.79826,-0.26974 h 2.69739 v 49.54201 q 0,1.52852 -0.0899,2.69738 0,1.07896 -0.17982,1.61844 -0.44957,1.25878 -1.97809,2.87721 h 11.50885 q -1.25878,-1.52852 -1.88817,-3.23687 -0.26973,-1.16886 -0.26973,-4.58555 z"
         style="fill:#d5cbba;fill-opacity:1" />
      <path
         d="m 332.0887,237.23337 4.43336,19.10753 c 0.27118,1.16878 0.5385,2.18413 0.80243,3.0467 0.3244,0.84854 0.59164,1.58673 0.80168,2.21548 0.47951,0.68913 0.93931,1.2903 1.37911,1.80356 0.50047,0.4991 1.07882,0.91812 1.73495,1.25672 2.23276,1.32328 4.8126,1.63441 7.71154,0.92874 3.01973,-0.73508 5.117,-2.18446 6.29965,-4.33374 1.15167,-2.01795 1.16986,-5.23717 0.067,-9.65729 l -2.65554,-10.64318 c -0.40628,-1.62834 -0.80636,-2.98059 -1.19968,-4.05616 -0.33446,-1.09035 -0.64753,-1.96996 -0.93907,-2.63861 -0.45262,-0.81391 -1.00799,-1.54054 -1.66569,-2.1803 -0.65774,-0.63982 -1.43214,-1.2508 -2.3229,-1.83385 -1.02229,-0.61223 -1.9046,-1.16742 -2.64726,-1.66447 -0.74281,-0.49715 -1.36097,-0.87076 -1.85572,-1.12055 -0.58162,-0.352 -1.16267,-0.70445 -1.74312,-1.05736 -0.58045,-0.3529 -1.21157,-0.66294 -1.89325,-0.93045 -1.28729,-0.98549 -2.15881,-2.44191 -2.62097,-4.36664 l -1.51243,-6.29878 c -0.19605,-0.81651 -0.3641,-1.51637 -0.50414,-2.09959 -0.0965,-0.65529 -0.14331,-1.23004 -0.1405,-1.72409 0.164,-1.08779 0.64716,-1.72786 1.45157,-1.92174 1.03421,-0.24925 1.86646,0.28926 2.496,1.61763 0.22904,0.43808 0.45787,0.99969 0.68638,1.68472 0.21424,0.62672 0.4496,1.46455 0.7058,2.51307 l 1.25975,5.15563 c 2.79317,1.60374 5.60095,3.19712 8.41837,4.7823 l -3.15617,-12.64968 c -1.10274,-4.41969 -2.59707,-7.20009 -4.46994,-8.34496 -2.1334,-1.45224 -4.62932,-1.82925 -7.48605,-1.1415 -2.5712,0.619 -4.52877,1.97695 -5.89577,4.08481 -0.6912,1.14791 -1.10324,2.59947 -1.23682,4.35466 0.0651,0.53871 0.14243,1.26059 0.23137,2.16322 0.13265,0.83123 0.32091,1.77301 0.56493,2.8247 l 1.93197,8.32669 c 0.32541,1.4025 0.76191,2.62493 1.31153,3.66738 0.60785,1.02881 1.34237,1.93545 2.20483,2.71916 0.30156,0.23652 0.85845,0.63137 1.66729,1.17934 0.85404,0.4761 1.97987,1.04262 3.3769,1.6952 2.82516,1.42342 4.58955,2.65585 5.28679,3.72313 1.35296,1.4598 2.52489,4.20032 3.50681,8.21892 l 1.77218,7.25283 c 0.44131,1.80611 0.60513,3.12397 0.49049,3.95492 -0.0151,1.23842 -0.5327,1.98288 -1.554,2.23104 -0.90118,0.21898 -1.64533,-0.0952 -2.23015,-0.94135 -0.21833,-0.37929 -0.42748,-0.85329 -0.62755,-1.42209 -0.15404,-0.64154 -0.33609,-1.39972 -0.54615,-2.27455 l -3.27694,-13.64734 c -2.81488,-1.17451 -5.62061,-2.36034 -8.41288,-3.55981 z"
         id="path26992"
         inkscape:original-d="m 332.64957,241.40242 v 19.60101 q 0,1.79826 0.0899,3.14696 0.17982,1.34869 0.26974,2.33773 0.44956,1.16887 0.89913,2.068 0.53947,0.89913 1.34869,1.61843 2.69739,2.69739 7.01321,2.69739 4.49564,0 6.92329,-2.69739 2.33773,-2.51756 2.33773,-9.35094 v -10.96938 q 0,-2.51756 -0.17982,-4.2259 -0.0899,-1.70835 -0.26974,-2.7873 -0.35965,-1.3487 -1.07896,-2.51756 -0.7193,-1.16887 -1.79825,-2.33774 -1.25878,-1.25878 -2.15791,-2.24782 -0.89913,-0.98904 -1.52852,-1.52852 -0.71931,-0.7193 -1.43861,-1.43861 -0.7193,-0.7193 -1.61843,-1.34869 -1.52852,-1.88817 -1.52852,-4.8553 v -6.47373 q 0,-1.25878 0,-2.15791 0.0899,-0.98904 0.26974,-1.70834 0.62939,-1.52852 1.88817,-1.52852 1.61843,0 2.068,2.15791 0.17982,0.7193 0.26973,1.79826 0.0899,0.98904 0.0899,2.60747 v 5.30486 l 7.0132,6.65356 v -13.03737 q 0,-6.83338 -2.33773,-9.17112 -2.60748,-2.87721 -7.10312,-2.87721 -4.04608,0 -6.83338,2.60747 -1.43861,1.43861 -2.24782,3.95617 -0.0899,0.80922 -0.26974,2.15791 -0.0899,1.25878 -0.0899,2.87721 v 8.54173 q 0,2.15791 0.44957,3.86625 0.53948,1.70835 1.52852,3.14695 0.35965,0.44957 1.34869,1.52852 1.07896,0.98905 2.87721,2.42765 3.59652,3.05704 4.22591,4.8553 1.43861,2.60747 1.43861,8.81146 v 7.46277 q 0,2.7873 -0.44957,3.95617 -0.44956,1.79826 -1.97808,1.79826 -1.34869,0 -1.88817,-1.43861 -0.17983,-0.62939 -0.26974,-1.52852 0,-0.98904 0,-2.33773 V 246.7972 Z"
         style="fill:#d5cbba;fill-opacity:1" />
    </g>
    <path
       style="fill:#853556;fill-opacity:1;stroke:none;stroke-width:0.370201px;stroke-linecap:butt;stroke-linejoin:miter;stroke-opacity:1"
       d="m 202.19024,51.96259 c 0,0 -5.47528,18.812785 -22.77419,4.973664 C 164.36418,44.894749 164.2333,39.65932 164.2333,39.65932 c 0,0 13.8739,11.779737 25.26097,13.743048 9.8027,1.690118 12.69597,-1.439778 12.69597,-1.439778 z"
       id="path25047"
       sodipodi:nodetypes="cscsc" />
    <path
       style="fill:#853556;fill-opacity:1;stroke:none;stroke-width:0.370201px;stroke-linecap:butt;stroke-linejoin:miter;stroke-opacity:1"
       d="m 226.99171,51.753745 c -77.99274,34.671437 -91.79253,11.819264 -91.79253,11.819264 0,0 18.36588,6.181299 59.19088,-10.867301 40.825,-17.048613 32.60165,-0.951963 32.60165,-0.951963 z"
       id="path24766" />
    <path
       style="fill:#853556;fill-opacity:1;stroke:none;stroke-width:0.370201px;stroke-linecap:butt;stroke-linejoin:miter;stroke-opacity:1"
       d="m 213.7321,57.300147 c -73.14521,43.985853 -89.64661,23.001138 -89.64661,23.001138 0,0 18.98589,3.879375 57.40855,-18.053172 38.42265,-21.932554 32.23806,-4.947966 32.23806,-4.947966 z"
       id="path24764" />
    <path
       style="fill:#853556;fill-opacity:1;stroke:none;stroke-width:0.370201px;stroke-linecap:butt;stroke-linejoin:miter;stroke-opacity:1"
       d="m 193.83742,68.294564 c -73.14518,43.985856 -89.64661,23.001163 -89.64661,23.001163 0,0 18.98592,3.879373 57.40853,-18.053173 38.42264,-21.932546 32.23808,-4.94799 32.23808,-4.94799 z"
       id="path15291" />
    <path
       style="fill:#853556;fill-opacity:1;stroke:none;stroke-width:0.370201px;stroke-linecap:butt;stroke-linejoin:miter;stroke-opacity:1"
       d="M 170.80151,79.812513 C 97.656327,123.79838 81.154877,102.81366 81.154877,102.81366 c 0,0 18.985953,3.87937 57.408563,-18.053177 38.42263,-21.932525 32.23807,-4.94797 32.23807,-4.94797 z"
       id="path13074" />
    <path
       style="fill:#853556;fill-opacity:1;stroke:none;stroke-width:0.356802px;stroke-linecap:butt;stroke-linejoin:miter;stroke-opacity:1"
       d="M 159.25724,86.312022 C 93.606847,134.16759 77.252427,114.10057 77.252427,114.10057 c 0,0 17.80456,2.85279 52.348813,-21.114213 34.54419,-23.966918 29.656,-6.674335 29.656,-6.674335 z"
       id="path35789" />
    <path
       style="fill:#853556;fill-opacity:1;stroke:none;stroke-width:0.27194px;stroke-linecap:butt;stroke-linejoin:miter;stroke-opacity:1"
       d="m 124.76726,106.4736 c -42.085033,34.67157 -49.531453,11.81945 -49.531453,11.81945 0,0 9.91028,6.18122 31.939513,-10.86737 22.02929,-17.048762 17.59194,-0.95208 17.59194,-0.95208 z"
       id="path35791" />
    <path
       style="fill:#853556;fill-opacity:1;stroke:none;stroke-width:0.370201px;stroke-linecap:butt;stroke-linejoin:miter;stroke-opacity:1"
       d="m 332.46325,63.424413 c 73.1452,43.985887 89.64659,23.00114 89.64659,23.00114 0,0 -18.98591,3.87935 -57.40853,-18.053196 -38.42264,-21.932522 -32.23806,-4.947944 -32.23806,-4.947944 z"
       id="path24764-4" />
    <path
       style="fill:#853556;fill-opacity:1;stroke:none;stroke-width:0.370201px;stroke-linecap:butt;stroke-linejoin:miter;stroke-opacity:1"
       d="m 319.20365,57.877988 c 77.99272,34.671436 91.79249,11.819287 91.79249,11.819287 0,0 -18.36586,6.181255 -59.19088,-10.867302 -40.82498,-17.048634 -32.60161,-0.951985 -32.60161,-0.951985 z"
       id="path24766-2" />
    <path
       style="fill:#853556;fill-opacity:1;stroke:none;stroke-width:0.370201px;stroke-linecap:butt;stroke-linejoin:miter;stroke-opacity:1"
       d="m 344.00514,58.086833 c 0,0 5.47524,18.812807 22.77412,4.973687 15.05191,-12.041505 15.18281,-17.276947 15.18281,-17.276947 0,0 -13.87395,11.779728 -25.261,13.743015 -9.80273,1.690118 -12.69593,-1.439755 -12.69593,-1.439755 z"
       id="path25047-1"
       sodipodi:nodetypes="cscsc" />
    <path
       id="path124767"
       style="fill:#b54067;fill-opacity:1;stroke:none;stroke-width:0.295945px;stroke-linecap:butt;stroke-linejoin:miter;stroke-opacity:1"
       d="m 433.73113,131.57375 c -0.63565,0.049 -6.84964,1.13932 -40.10406,7.61027 -46.70658,10.73053 -85.24477,17.95773 -123.28548,20.75206 -0.0725,0.2023 0.98825,1.09575 1.86705,3.5525 0.79373,2.21893 -8.7e-4,4.44125 -0.19405,5.13961 40.58808,-2.77046 89.16796,-14.4336 125.27135,-23.27867 29.49126,-7.22513 35.86969,-13.6048 35.86969,-13.6048 0,0 0.86442,-0.19322 0.5755,-0.17101 z"
       sodipodi:nodetypes="sccscscss" />
    <path
       style="fill:#de4f7e;fill-opacity:1;stroke:none;stroke-width:0.32277px;stroke-linecap:butt;stroke-linejoin:miter;stroke-opacity:1"
       d="m 372.62949,143.99442 c 0,0 12.02179,-15.07777 20.17842,2.43052 6.98571,14.99491 4.14599,19.68401 4.14599,19.68401 0,0 -4.64342,-14.78233 -13.45746,-19.66205 -7.58769,-4.2007 -10.86695,-2.45247 -10.86695,-2.45247 z"
       id="path168984"
       sodipodi:nodetypes="cscscc" />
    <path
       style="fill:#de4f7e;fill-opacity:1;stroke:none;stroke-width:0.370201px;stroke-linecap:butt;stroke-linejoin:miter;stroke-opacity:1"
       d="m 339.52272,150.94617 c 0,0 11.35423,-15.96809 23.14363,2.78777 10.258,16.31958 8.66094,21.30716 8.66094,21.30716 0,0 -9.23153,-15.68523 -19.34074,-21.28195 -8.70268,-4.81806 -12.46383,-2.81297 -12.46383,-2.81297 z"
       id="path29851"
       sodipodi:nodetypes="cscsc" />
    <path
       style="fill:#de4f7e;fill-opacity:1;stroke:none;stroke-width:0.370201px;stroke-linecap:butt;stroke-linejoin:miter;stroke-opacity:1"
       d="m 297.56088,157.63263 c 0,0 13.13126,-16.93961 23.14362,2.78768 7.92684,15.61822 3.10794,37.78115 3.10794,37.78115 0,0 -4.9742,-32.71447 -15.08346,-38.31124 -8.7026,-4.81799 -11.1681,-2.25757 -11.1681,-2.25757 z"
       id="path29849"
       sodipodi:nodetypes="cscscc" />
    <path
       style="fill:#a9a194;fill-opacity:1;stroke:none;stroke-width:0.264583px;stroke-linecap:butt;stroke-linejoin:miter;stroke-opacity:1"
       d="m 229.85169,66.511377 c 0,0 5.78776,-4.134114 14.05599,-6.201171 8.26823,-2.067058 13.84928,-2.067058 13.84928,-2.067058 l 8.05974,12.813082 c 0,0 -4.01524,-6.863956 -12.73443,-6.826852 -9.38399,0.03993 -23.23058,2.281999 -23.23058,2.281999 z"
       id="path1399"
       sodipodi:nodetypes="csccsc" />
  </g>
</svg>
