<?xml version="1.0" encoding="UTF-8" standalone="no"?>
<svg
   viewBox="0 0 100.83551 97.357648"
   height="97.359375"
   width="100.83582"
   version="1.1"
   id="svg6"
   sodipodi:docname="project.svg"
   inkscape:version="1.1.2 (b8e25be833, 2022-02-05)"
   xmlns:inkscape="http://www.inkscape.org/namespaces/inkscape"
   xmlns:sodipodi="http://sodipodi.sourceforge.net/DTD/sodipodi-0.dtd"
   xmlns="http://www.w3.org/2000/svg"
   xmlns:svg="http://www.w3.org/2000/svg">
  <defs
     id="defs10" />
  <sodipodi:namedview
     id="namedview8"
     pagecolor="#ffffff"
     bordercolor="#999999"
     borderopacity="1"
     inkscape:pageshadow="0"
     inkscape:pageopacity="0"
     inkscape:pagecheckerboard="0"
     showgrid="false"
     inkscape:zoom="1.4142136"
     inkscape:cx="-0.35355339"
     inkscape:cy="69.296464"
     inkscape:window-width="1920"
     inkscape:window-height="1017"
     inkscape:window-x="-8"
     inkscape:window-y="-8"
     inkscape:window-maximized="1"
     inkscape:current-layer="svg6"
     inkscape:snap-object-midpoints="true"
     inkscape:snap-global="true" />
  <path
     id="path33928"
     style="fill:#de4f7e;fill-opacity:1;stroke:none;stroke-width:0.24494"
     d="M 50.418558,-8.2253246e-4 C 47.456203,0.02906633 44.502341,0.31099075 41.591258,0.84167827 c 2.050569,-0.33009448 4.12032,-0.53742043 6.1974,-0.6207905 -0.59594,6.15943263 -0.36288,3.94688463 -1.19722,11.02989223 -0.71483,5.858241 -1.77257,11.661927 -2.87176,17.457072 -0.66338,3.497794 -1.23313,6.616553 -2.01232,10.080163 -0.33357,1.482752 -0.715803,2.954594 -1.073083,4.431789 -0.13247,0.5018 -0.28797,0.995822 -0.43133,1.493925 0.1208,0.720016 0.23518,1.440973 0.35796,2.160669 0.30367,2.411344 0.683763,4.810642 1.083563,7.206797 0.83552,0.511505 1.66594,1.032608 2.50492,1.536655 6.27726,3.570514 12.58777,7.110522 19.09693,10.242212 0.89543,-4.425416 1.30507,-6.370591 1.78578,-12.262599 0.47211,-5.785836 0.56636,-11.882546 0.20397,-17.673946 -0.30431,-4.862349 -1.01338,-9.70018 -1.70677,-14.524045 -0.40483,-0.53295 -0.79262,-1.033871 -1.26173,-1.686613 -1.09735,-1.526853 -2.07082,-3.138899 -3.10637,-4.708321 -0.89979,-1.583641 -1.85905,-3.134993 -2.69921,-4.751053 -1.63962,-3.1539136 -3.13989,-6.6082576 -4.41891,-10.11724653 2.482468,0.0727948 4.955972,0.3225958 7.40031,0.7473627 C 56.468746,0.32756891 53.448247,0.03156325 50.418558,-8.2253246e-4 Z M 59.572378,0.91020887 C 61.888342,1.3230111 64.171502,1.8919832 66.405088,2.6129454 64.171502,1.8919832 61.888342,1.3230111 59.572378,0.91020887 Z m -18.50758,0.041918 C 38.686177,1.3878445 36.34315,1.9884186 34.053905,2.7491874 c 0.39723,3.682978 0.85227,7.3590446 1.34397,11.0331156 0.81623,5.474142 1.63112,10.948453 2.47348,16.418662 1.09453,-5.265203 1.97316,-10.574482 2.61377,-15.916387 0.16322,-1.918752 0.37595,-3.834064 0.48937,-5.7564056 0.167123,-2.833528 0.168563,-5.098778 0.0903,-7.57604553 z m 25.6539,1.77368053 c 0.50517,4.536299 1.04259,9.0688856 1.56408,13.6033436 0.79642,1.173788 1.66849,2.328104 3.36435,4.426145 1.22658,1.517462 2.48738,3.009908 3.81583,4.439046 1.36263,1.465925 2.82928,2.831434 4.2512,4.239909 1.35512,1.342333 3.39474,3.332642 5.25736,5.154161 1.98697,-5.032792 3.76086,-10.144218 5.46052,-15.281085 1.239862,1.550457 2.381668,3.171756 3.41919,4.855054 C 87.754185,14.113122 78.127604,6.5074581 66.718698,2.7258074 Z m -34.490073,0.680449 c -7.979144,2.9720474 -15.04413,7.8549756 -20.53038,14.1894656 3.13e-4,0.0696 0.0019,0.139157 0,0.208811 -0.15629,4.736758 -0.206673,7.663853 -0.565965,12.269855 2.788317,2.994894 5.708962,5.864629 8.792631,8.561247 1.199911,1.004011 2.376362,2.036784 3.59977,3.012036 3.068864,2.446261 6.258854,4.736106 9.514194,6.93107 0.14474,-0.440047 0.29469,-0.878447 0.43455,-1.319782 -0.26409,-2.241222 -0.53106,-4.482131 -0.78364,-6.724678 -0.88954,-7.898312 -1.63044,-15.827271 -3.1628,-23.635939 -0.77409,-3.744627 -1.52115,-7.5104846 -2.39528,-11.2427306 1.654467,-0.8404426 3.356069,-1.5913874 5.09692,-2.249355 z M 8.240371,22.054922 c -0.3947827,0.625861 -0.7748783,1.260249 -1.139996,1.902679 0.3651177,-0.64243 0.7452133,-1.276818 1.139996,-1.902679 z m 86.034107,2.856437 c -1.40562,4.132831 -2.9601,8.215727 -4.71396,12.21342 -0.19,0.427236 -0.39065,0.851979 -0.58129,1.279471 3.8806,3.553261 7.81434,7.044183 11.851432,10.417163 -0.0142,2.624484 -0.24825,5.24356 -0.69979,7.831616 -1.277242,-1.199291 -2.503572,-2.310326 -5.254952,-4.665591 -1.06743,-0.889418 -7.13137,-5.937929 -8.77004,-7.326119 -0.95372,1.98067 -1.94583,3.942008 -3.02656,5.853155 -0.84872,1.500892 -1.76906,2.960816 -2.70326,4.410022 -3.25464,5.048983 -2.69618,4.085413 -6.59567,8.728938 -1.41431,1.479723 -2.7889,2.998485 -4.24313,4.439045 -0.13874,0.137448 -0.30092,0.288369 -0.44342,0.428103 0.33384,0.143392 0.66376,0.294665 0.99889,0.435358 6.92598,3.039531 13.89246,6.015514 21.0891,8.352439 6.270704,-8.318683 9.650312,-18.341785 9.653682,-28.630474 -0.0439,-8.333831 -2.302999,-16.517233 -6.561032,-23.766546 z M 5.088857,27.513836 c -0.4139858,0.848681 -0.8024768,1.708738 -1.164986,2.579095 0.3625092,-0.870357 0.7510002,-1.730414 1.164986,-2.579095 z m 63.982391,0.454708 c 0.0512,1.411859 0.0861,2.211067 0.20317,5.862828 0.22902,7.133784 0.4003,10.481989 0.1539,17.542533 -0.2153,6.164952 -0.51033,8.207875 -1.11016,13.957272 4.14268,-5.001497 7.52893,-10.55679 10.44054,-16.354165 1.52106,-3.028646 2.29045,-4.905698 3.46594,-7.696977 -0.28097,-0.247741 -0.56316,-0.494067 -0.84493,-0.740915 -2.62807,-2.37898 -5.36113,-4.752176 -7.78404,-7.348692 -1.35195,-1.4489 -2.58551,-3.004025 -3.88759,-4.4979 -0.26458,-0.303539 -0.39519,-0.449399 -0.63692,-0.723984 z M 3.252287,31.831947 C 1.1450168,37.217408 0.04386356,42.921081 0,48.677905 0.04284922,52.067173 0.45221022,55.442853 1.221421,58.750007 2.880261,52.618407 4.000175,46.359435 4.793781,40.06103 5.030385,38.183533 5.245557,36.30293 5.416182,34.4183 4.638731,33.499522 3.84898,32.565786 3.252287,31.831947 Z m 6.848033,7.792918 c -0.785038,5.743041 -1.84291,11.449186 -3.09508,17.108787 -0.864423,3.77487 -1.682323,7.56903 -2.647624,11.321741 -1.3497059,-2.95563 -2.3913706,-6.03363 -3.109591,-9.188484 3.5288977,15.798255 14.948424,28.875506 30.47914,34.903668 -0.289897,-0.12716 -0.57854,-0.25697 -0.86589,-0.38941 2.93579,-1.50684 5.85936,-3.038204 8.78135,-4.571267 -0.324,-2.415807 -0.63816,-4.363619 -1.12226,-7.378515 -0.23869,-1.486446 -0.47331,-2.974089 -0.71028,-4.460814 -0.94935,-6.205436 -1.89526,-12.410844 -2.81129,-18.621255 -1.36814,2.941498 -2.84161,5.836068 -4.35116,8.699916 -1.51183,2.800371 -3.20313,5.504944 -5.174323,8.006566 -0.948872,1.204216 -2.051874,2.48954 -3.247451,3.465133 -0.7007,0.571804 -1.476046,1.045839 -2.213878,1.568905 -0.802923,0.490393 -1.594709,1.000176 -2.408985,1.471349 -0.868122,0.50241 -1.743643,0.991928 -2.612959,1.492311 -0.403801,-0.37679 -0.801054,-0.760067 -1.191592,-1.149671 1.262167,-0.972965 2.470535,-2.185679 3.522371,-3.360323 2.256136,-2.519548 4.194882,-5.292208 5.93781,-8.187157 1.82253,-3.168156 2.409823,-4.061678 4.023847,-7.401903 1.23677,-2.559338 2.36971,-5.173125 3.41111,-7.822748 -1.82549,-1.227636 -3.64042,-2.471681 -5.450851,-3.720705 -3.136217,-2.163668 -5.048536,-3.431306 -8.058163,-5.752375 -1.255735,-0.968467 -2.468208,-1.991878 -3.70216,-2.987851 -1.127182,-1.015615 -2.300724,-1.98185 -3.382091,-3.045898 z m 33.009048,23.057881 c 0.11381,0.67044 0.23637,1.3396 0.34587,2.010713 0.33315,2.042067 0.99685,6.567495 1.29963,8.608003 0.60254,3.872975 0.99253,7.772046 1.40765,11.667611 0.19113,-0.119844 0.36464,-0.229215 0.56114,-0.35151 0.37166,-0.231354 0.9761,-0.618584 1.32139,-0.887647 6.77776,-5.281383 4.76667,-3.086518 11.05649,-8.795052 0.99418,-0.902304 1.79924,-1.656067 2.50574,-2.341259 0.0319,-0.104332 0.0629,-0.209079 0.0943,-0.313622 -6.29343,-3.011682 -12.49665,-6.205308 -18.59223,-9.597237 z m 23.15866,11.661162 c -0.73385,2.219259 -1.62752,4.38574 -2.71938,6.472332 -2.25533,4.310015 -5.24026,8.147143 -8.21215,11.969127 -0.71739,0.86001 -1.45934,1.69688 -2.21227,2.52428 4.47086,-1.23766 8.93318,-2.50041 13.31471,-4.033518 1.60851,-0.562862 3.19481,-1.187374 4.79217,-1.780938 5.03847,-2.045312 9.94799,-4.41336 14.71674,-7.031846 -6.63728,-2.514166 -13.16324,-5.308483 -19.67982,-8.119437 z m -5.99021,2.112295 c -0.32865,0.270486 -0.67353,0.566817 -0.99165,0.821538 -1.86799,1.495679 -3.74752,2.986765 -5.74189,4.309243 -2.3785,1.577288 -4.81227,3.068364 -7.25599,4.543854 0.06,0.551314 0.11538,1.103426 0.17818,1.654359 0.33609,2.946733 0.72628,5.8875 1.11984,8.82811 0.24523,-0.27723 0.49771,-0.54722 0.7385,-0.8288 2.20344,-2.72274 3.91118,-4.709119 5.86604,-7.635703 2.45629,-3.677228 4.50105,-7.592426 6.08697,-11.692601 z m 30.83386,0.948919 c -60.741119,-51.60389 -30.370559,-25.801945 0,0 z"
     sodipodi:nodetypes="cccccsccccccccccccccccccscccccssccsscccccccccccccccccccccccccccsccsccccccccccccscccscccccccccccccccscccscccccscccccccccccccscccccsccccccccccccccccc" />
</svg>
