<?xml version="1.0" encoding="UTF-8" standalone="no"?>
<svg
   width="989.6543"
   height="429.80273"
   viewBox="15.583 -197.416 989.65431 429.80274"
   version="1.1"
   id="svg9"
   sodipodi:docname="soundcloud-logo.svg"
   inkscape:version="1.1.2 (b8e25be833, 2022-02-05)"
   xmlns:inkscape="http://www.inkscape.org/namespaces/inkscape"
   xmlns:sodipodi="http://sodipodi.sourceforge.net/DTD/sodipodi-0.dtd"
   xmlns="http://www.w3.org/2000/svg"
   xmlns:svg="http://www.w3.org/2000/svg">
  <defs
     id="defs13" />
  <sodipodi:namedview
     id="namedview11"
     pagecolor="#ffffff"
     bordercolor="#999999"
     borderopacity="1"
     inkscape:pageshadow="0"
     inkscape:pageopacity="0"
     inkscape:pagecheckerboard="0"
     showgrid="false"
     inkscape:zoom="0.41984371"
     inkscape:cx="153.6286"
     inkscape:cy="321.54823"
     inkscape:window-width="1920"
     inkscape:window-height="1017"
     inkscape:window-x="-8"
     inkscape:window-y="-8"
     inkscape:window-maximized="1"
     inkscape:current-layer="svg9" />
  <linearGradient
     id="a"
     gradientUnits="userSpaceOnUse"
     x1="-916.59802"
     y1="1716.657"
     x2="-916.59802"
     y2="1663.651"
     gradientTransform="matrix(10.6432,0,0,-10.6432,10265.9,18285.979)">
    <stop
       offset="0"
       stop-color="#f79810"
       id="stop2" />
    <stop
       offset="1"
       stop-color="#f8310e"
       id="stop4" />
  </linearGradient>
  <path
     id="path7"
     style="fill:#de4f7e;fill-opacity:1;stroke:none;stroke-opacity:1"
     d="m 622.53027,-197.416 c -27.459,0 -54.22724,5.40683 -77.86524,14.54883 -9.185,3.555 -11.63375,7.21545 -11.71875,14.31445 v 386.34766 c 0.096,7.45 5.87649,13.65367 13.14649,14.38867 0.309,0.032 335.24792,0.20312 337.41992,0.20312 67.222,0 121.72461,-54.50432 121.72461,-121.73632 -10e-4,-67.233 -54.4938,-121.74805 -121.7168,-121.74805 -16.678,0 -32.58798,3.37417 -47.08398,9.45117 -9.686,-109.709 -101.68525,-195.76953 -213.90625,-195.76953 z m -114.4668,28.52344 c -7.312,0 -13.31488,6.0039 -13.42188,13.3789 l -5.49218,274.22071 5.5039,99.52343 c 0.096,7.27 6.09916,13.26172 13.41016,13.26172 7.29,0 13.29244,-5.99118 13.39844,-13.36718 v 0.11718 l 5.9707,-99.53515 -5.9707,-274.24219 c -0.106,-7.354 -6.10844,-13.35742 -13.39844,-13.35742 z m -41.5625,23.6289 c -6.822,0 -12.45159,5.60863 -12.55859,12.51563 l -4.73633,251.33789 c 0,0.16 4.73632,101.06641 4.73633,101.06641 0.108,6.833 5.74854,12.44335 12.56054,12.44335 6.812,0 12.4316,-5.60885 12.5586,-12.50585 l 5.30078,-100.91797 -5.30274,-251.43555 c -0.117,-6.886 -5.74659,-12.50391 -12.55859,-12.50391 z m -124.2793,28.875 c -5.471,0 -9.87739,4.37271 -10.02539,9.97071 l -6.23633,225.02929 6.2461,103.29102 c 0.149,5.534 4.55562,9.9082 10.01562,9.9082 5.449,0 9.83363,-4.37345 10.01563,-9.93945 v -0.0117 l 7.02343,-103.23828 -7.02343,-225.03906 c -0.171,-5.587 -4.57663,-9.97071 -10.01563,-9.97071 z m 41.10352,4.92774 c -5.971,0 -10.74896,4.7465 -10.87696,10.8125 l -5.73632,219.29297 5.74804,102.30078 c 0.128,6.002 4.90596,10.75976 10.87696,10.75976 5.929,0 10.70523,-4.75626 10.86523,-10.82226 v 0.0723 l 6.44922,-102.32226 -6.45898,-219.28125 c -0.16001,-6.067 -4.93819,-10.8125 -10.86719,-10.8125 z m -81.88672,3.26562 c -4.992,0 -9.02455,4.00233 -9.18555,9.11133 l -6.73828,217.68359 6.73828,103.94141 c 0.16,5.067 4.19183,9.06836 9.17383,9.06836 4.949,0 8.97183,-3.99061 9.17383,-9.09961 l 7.59961,-103.89844 -7.58789,-217.70703 c -0.202,-5.109 -4.22583,-9.09961 -9.17383,-9.09961 z m 123.32226,3.89649 c -6.439,0 -11.60346,5.11978 -11.73046,11.67578 l -5.23438,211.27734 5.23438,101.66211 c 0.128,6.471 5.28046,11.5918 11.73046,11.5918 6.428,0 11.55904,-5.11002 11.70704,-11.66602 v 0.0859 l 5.875,-101.66406 -5.875,-211.3086 c -0.149,-6.534 -5.28004,-11.65429 -11.70704,-11.65429 z m -163.79882,13.70703 c -4.491,0 -8.15371,3.62976 -8.34571,8.25976 l -7.23632,200.92188 7.24804,105.01562 c 0.18,4.587 3.84199,8.2168 8.33399,8.2168 4.449,0 8.12098,-3.62976 8.33398,-8.25976 l 8.17383,-104.97266 -8.17383,-200.92188 c -0.224,-4.641 -3.88498,-8.25976 -8.33398,-8.25976 z m -40.16797,38.21094 c -3.991,0 -7.29142,3.26697 -7.48242,7.41796 l -7.74805,163.52149 7.74805,105.67578 c 0.202,4.129 3.49142,7.38477 7.48242,7.38477 3.97,0 7.25818,-3.26725 7.49218,-7.40625 v 0.0312 l 8.75977,-105.68555 -8.75977,-163.52149 c -0.235,-4.15099 -3.52318,-7.41796 -7.49218,-7.41796 z M 141.44823,4.45314 c -3.065,0 -5.56454,2.44784 -5.81054,5.71484 l -8.72852,108.34766 8.72852,104.82422 c 0.234,3.246 2.74454,5.69336 5.81054,5.69336 3.033,0 5.53574,-2.44736 5.80274,-5.69336 L 157.16894,118.51564 147.25097,10.1465 c -0.267,-3.245 -2.76974,-5.69336 -5.80274,-5.69336 z m -39.19726,3.73438 c -2.608001,0 -4.694939,2.04351 -4.960939,4.85351 l -9.238281,105.45313 9.238281,101.59961 c 0.256,2.82 2.341938,4.86328 4.960939,4.86328 2.575,0 4.66098,-2.0318 4.95898,-4.8418 L 117.70409,118.49416 107.21972,13.04103 c -0.309,-2.82 -2.39375,-4.85351 -4.96875,-4.85351 z m 78.7168,3.26757 c -3.575,0 -6.42935,2.8216 -6.65235,6.5586 l -8.22656,100.50195 8.22656,105.6875 c 0.234,3.724 3.07635,6.54492 6.65235,6.54492 3.523,0 6.37462,-2.82115 6.64062,-6.53515 l 9.3457,-105.69727 -9.3457,-100.54492 c -0.255,-3.714 -3.10562,-6.51563 -6.64062,-6.51563 z M 63.370109,25.61134 c -2.097,0 -3.830187,1.68319 -4.117187,3.99219 0,0.021 -9.728516,88.88086 -9.728516,88.88086 l 9.728516,86.91211 c 0.277,2.331 2.010187,4.01172 4.117187,4.01172 2.075,0 3.769375,-1.63824 4.109375,-3.99024 L 78.547844,118.48439 67.48925,29.60353 c -0.341,-2.362 -2.033141,-3.99219 -4.119141,-3.99219 z M 26.790031,59.63869 c -2.065,0 -3.703703,1.59604 -3.970703,3.87304 l -7.236328,54.97266 7.236328,54.02539 c 0.267,2.277 1.904703,3.86133 3.970703,3.86133 2,0 3.630219,-1.5738 3.949219,-3.8418 L 39.317375,118.48244 30.73925,63.50197 c -0.309,-2.267 -1.959219,-3.86328 -3.949219,-3.86328 z" />
</svg>
